<?xml version="1.0" encoding="UTF-8" standalone="no"?>
<!-- Created with Inkscape (http://www.inkscape.org/) -->

<svg
   width="21cm"
   height="21cm"
   viewBox="0 0 210 210"
   version="1.1"
   id="svg1"
   xml:space="preserve"
   inkscape:export-filename="fallatranformador.svg"
   inkscape:export-xdpi="96"
   inkscape:export-ydpi="96"
   xmlns:inkscape="http://www.inkscape.org/namespaces/inkscape"
   xmlns:sodipodi="http://sodipodi.sourceforge.net/DTD/sodipodi-0.dtd"
   xmlns="http://www.w3.org/2000/svg"
   xmlns:svg="http://www.w3.org/2000/svg"><sodipodi:namedview
     id="namedview1"
     pagecolor="#ffffff"
     bordercolor="#000000"
     borderopacity="0.25"
     inkscape:showpageshadow="2"
     inkscape:pageopacity="0.0"
     inkscape:pagecheckerboard="0"
     inkscape:deskcolor="#d1d1d1"
     inkscape:document-units="mm" /><defs
     id="defs1"><inkscape:path-effect
       effect="bspline"
       id="path-effect26"
       is_visible="true"
       lpeversion="1.3"
       weight="33.333333"
       steps="2"
       helper_size="0"
       apply_no_weight="true"
       apply_with_weight="true"
       only_selected="false"
       uniform="false" /><inkscape:path-effect
       effect="bspline"
       id="path-effect25"
       is_visible="true"
       lpeversion="1.3"
       weight="33.333333"
       steps="2"
       helper_size="0"
       apply_no_weight="true"
       apply_with_weight="true"
       only_selected="false"
       uniform="false" /><inkscape:path-effect
       effect="bspline"
       id="path-effect25-7"
       is_visible="true"
       lpeversion="1.3"
       weight="33.333333"
       steps="2"
       helper_size="0"
       apply_no_weight="true"
       apply_with_weight="true"
       only_selected="false"
       uniform="false" /></defs><g
     inkscape:label="Capa 1"
     inkscape:groupmode="layer"
     id="layer1"><g
       id="g26"
       transform="matrix(5.4423852,0,0,5.3587296,-602.66658,-638.12178)"><path
         style="fill:#000000;stroke:#bcfafd;stroke-width:0.379743;stroke-opacity:0"
         d="m 492.28398,478.09617 c -0.16542,-0.43107 -0.87832,-0.57255 -2.93109,-0.58169 -1.78084,-0.008 -2.96569,-0.20357 -3.44964,-0.56961 -0.40542,-0.30665 -1.30525,-0.55754 -1.99963,-0.55754 -0.69437,0 -1.94334,-0.21249 -2.77549,-0.4722 l -1.51299,-0.4722 v -8.07202 -8.07201 h 0.92695 c 0.50982,0 1.03256,-0.17088 1.16164,-0.37974 0.12908,-0.20886 1.0581,-0.37974 2.0645,-0.37974 1.16322,0 2.00202,-0.20751 2.30254,-0.56962 0.34204,-0.41213 1.24729,-0.56961 3.27431,-0.56961 1.61456,0 2.80158,-0.1609 2.80158,-0.37974 0,-0.24891 7.78472,-0.37975 22.59469,-0.37975 h 22.5947 v 11.01255 11.01254 H 514.9193 c -19.57568,0 -22.44444,-0.0722 -22.63532,-0.56962 z"
         id="path12"
         transform="scale(0.26458333)" /><path
         style="fill:#000000;stroke:#bcfafd;stroke-width:0.379743;stroke-opacity:0"
         d="m 542.2727,467.46337 v -8.16447 h 7.02525 7.02524 v 8.16447 8.16447 l -1.80378,-0.044 c -0.99208,-0.0242 -1.46446,-0.12995 -1.04974,-0.23495 1.69817,-0.42992 2.5361,-2.36259 1.70093,-3.92313 -0.35759,-0.66817 -0.83748,-0.73452 -5.31206,-0.73452 -4.10568,0 -5.04524,0.10813 -5.68278,0.65401 -0.42011,0.3597 -0.75814,1.00052 -0.75119,1.42403 0.0158,0.96205 1.13518,2.33691 2.10381,2.58393 0.40239,0.10262 -0.16552,0.20641 -1.26203,0.23063 l -1.99365,0.044 z m 11.78247,-2.73112 c 0.5164,-0.3534 1.06446,-0.82333 1.21791,-1.04429 0.57264,-0.82462 0.25907,-2.17611 -0.71419,-3.07809 -0.92442,-0.85672 -1.30243,-0.93122 -4.72508,-0.93122 -3.09639,0 -3.94679,0.13365 -5.07107,0.79699 -2.04752,1.20806 -1.76472,2.82251 0.7711,4.40214 1.18038,0.73529 7.38917,0.62926 8.52133,-0.14553 z"
         id="path13"
         transform="scale(0.26458333)" /><path
         style="fill:#000000;stroke:#bcfafd;stroke-width:0.379743;stroke-opacity:0"
         d="m 471.54561,471.54979 -2.18352,-0.13702 v -3.96835 -3.96835 h 1.86765 c 1.02721,0 2.13796,-0.10372 2.46833,-0.23049 0.52648,-0.20203 0.60067,0.31396 0.60067,4.17717 0,2.42421 -0.12816,4.37535 -0.2848,4.33586 -0.15665,-0.0395 -1.26739,-0.13346 -2.46833,-0.20882 z"
         id="path14"
         transform="scale(0.26458333)" /><path
         style="fill:#000000;stroke:#bcfafd;stroke-width:0.379743;stroke-opacity:0"
         d="m 515.97552,506.99762 c -0.36551,-0.27746 -0.66455,-0.7437 -0.66455,-1.0361 0,-0.29239 -0.42722,-0.99236 -0.94936,-1.55546 -0.52215,-0.56312 -0.94936,-1.20219 -0.94936,-1.42016 0,-0.21798 -0.2354,-0.39632 -0.52312,-0.39632 -0.28771,0 -0.73584,-0.25632 -0.99585,-0.56961 -0.26001,-0.31329 -0.86894,-0.56962 -1.35319,-0.56962 -0.48424,0 -0.98606,-0.17088 -1.11514,-0.37974 -0.15296,-0.2475 -10.11191,-0.38395 -28.59806,-0.39182 -24.33786,-0.0104 -28.46797,-0.0912 -29.10049,-0.56961 -0.40542,-0.30665 -1.31477,-0.55754 -2.02077,-0.55754 -0.706,0 -1.53997,-0.25633 -1.85326,-0.56961 -0.31329,-0.31329 -0.98462,-0.56962 -1.49185,-0.56962 -0.50722,0 -0.92223,-0.17088 -0.92223,-0.37974 0,-0.20886 -0.25632,-0.37974 -0.56961,-0.37974 -0.31329,0 -0.56962,-0.21581 -0.56962,-0.47957 0,-0.45559 -0.91489,-1.08653 -2.37339,-1.63676 -0.3655,-0.13789 -0.66455,-0.46215 -0.66455,-0.72058 0,-0.25843 -0.42721,-0.93085 -0.94936,-1.49425 -0.52214,-0.56341 -0.94935,-1.18645 -0.94935,-1.38455 0,-0.1981 -0.16763,-0.36018 -0.37251,-0.36018 -0.20488,0 -0.47973,-0.42721 -0.61078,-0.94936 -0.13105,-0.52214 -0.39063,-0.94935 -0.57685,-0.94935 -0.18622,0 -0.33858,-0.50045 -0.33858,-1.11211 0,-0.61165 -0.25632,-1.36843 -0.56961,-1.68171 -0.43706,-0.43706 -0.56961,-1.53857 -0.56961,-4.73329 0,-3.35072 0.11121,-4.20634 0.56961,-4.38224 0.31329,-0.12022 0.56961,-0.53946 0.56961,-0.93165 0,-0.68126 1.02816,-3.08933 1.48923,-3.48794 0.27934,-0.24151 1.09448,-1.53581 1.43495,-2.27846 0.36757,-0.80176 1.12569,-1.51897 1.60561,-1.51897 0.22378,0 0.40687,-0.25633 0.40687,-0.56961 0,-0.31939 0.33887,-0.56962 0.7714,-0.56962 0.42428,0 0.86977,-0.25633 0.98999,-0.56961 0.12022,-0.31329 0.45662,-0.56962 0.74757,-0.56962 0.29094,0 0.52898,-0.17088 0.52898,-0.37974 0,-0.20886 0.42721,-0.37974 0.94936,-0.37974 0.59071,0 0.94936,-0.21519 0.94936,-0.56962 0,-0.42081 0.44054,-0.56961 1.68643,-0.56961 0.92753,0 1.79204,-0.17089 1.92112,-0.37974 0.14107,-0.22825 2.72544,-0.37975 6.47804,-0.37975 h 6.24335 v 3.03795 3.03794 h -6.43322 c -3.87919,0 -6.52639,0.15076 -6.66791,0.37974 -0.12908,0.20886 -0.6309,0.37974 -1.11514,0.37974 -0.48425,0 -1.09318,0.25633 -1.35319,0.56962 -0.26,0.31329 -0.6168,0.56961 -0.79289,0.56961 -0.78071,0 -3.76402,3.62265 -3.76402,4.57068 0,0.23112 -0.25633,0.67655 -0.56962,0.98984 -0.43046,0.43046 -0.56559,1.46748 -0.55314,4.24498 0.0144,3.21701 0.13249,3.8648 0.94678,5.19434 0.51167,0.83544 1.04972,1.7753 1.19568,2.08859 0.46027,0.98792 2.31408,2.6582 2.9503,2.6582 0.33591,0 0.70911,0.25632 0.82933,0.56961 0.13264,0.34566 0.70689,0.56962 1.46056,0.56962 0.68308,0 1.4547,0.25632 1.71471,0.56961 0.41261,0.49717 4.13755,0.56961 29.28669,0.56961 18.95614,0 28.81395,0.12992 28.81395,0.37975 0,0.20885 0.68354,0.37974 1.51897,0.37974 1.09704,0 1.51898,0.15823 1.51898,0.56961 0,0.32849 0.34326,0.56962 0.81087,0.56962 0.44598,0 1.2068,0.42721 1.69071,0.94935 0.48391,0.52215 1.01616,0.9563 1.18278,0.96478 0.16661,0.008 0.90103,0.7153 1.63204,1.5707 0.731,0.8554 1.62814,1.87377 1.99364,2.26304 0.36551,0.38926 0.66455,1.04952 0.66455,1.46724 0,0.41772 0.17089,0.75949 0.37975,0.75949 0.20886,0 0.37974,0.42721 0.37974,0.94935 0,0.59072 0.21519,0.94936 0.56961,0.94936 0.31329,0 0.56962,0.25633 0.56962,0.56961 0,0.76178 -5.55525,0.79655 -6.55056,0.041 z"
         id="path15"
         transform="scale(0.26458333)" /><path
         style="fill:#000000;stroke:#bcfafd;stroke-width:0.379743;stroke-opacity:0"
         d="m 449.23572,527.11464 c 0,-0.7136 -0.14488,-1.35442 -0.32195,-1.42404 -0.17708,-0.0696 -0.43542,-0.85284 -0.57411,-1.74049 l -0.25214,-1.6139 h 20.18992 20.18992 l -1.00842,0.86651 c -0.55464,0.47658 -1.00843,1.08283 -1.00843,1.34723 0,0.2644 -0.42721,0.87665 -0.94935,1.36056 -0.52215,0.4839 -0.94936,1.24472 -0.94936,1.69071 v 0.81087 h -17.65804 -17.65804 z"
         id="path16"
         transform="scale(0.26458333)" /><path
         style="fill:#000000;stroke:#bcfafd;stroke-width:0.379743;stroke-opacity:0"
         d="m 515.90294,584.03233 c -0.46726,-0.35341 -1.61427,-0.55753 -3.13288,-0.55753 -1.31766,0 -2.39575,-0.15587 -2.39575,-0.34637 0,-0.1905 -0.68354,-0.46184 -1.51897,-0.60299 -0.83544,-0.14115 -1.51897,-0.41249 -1.51897,-0.60299 0,-0.1905 -0.32792,-0.34637 -0.72871,-0.34637 -0.78037,0 -3.17536,-1.14183 -3.38517,-1.6139 -0.0696,-0.15665 -0.53955,-0.28481 -1.0443,-0.28481 -0.50474,0 -0.91771,-0.21581 -0.91771,-0.47957 0,-0.45559 -0.91489,-1.08653 -2.37339,-1.63676 -0.3655,-0.13789 -0.66455,-0.40166 -0.66455,-0.58616 0,-0.1845 -0.18428,-0.33545 -0.40951,-0.33545 -0.22524,0 -1.06626,-0.68354 -1.86895,-1.51898 -0.80268,-0.83543 -1.72915,-1.51897 -2.05881,-1.51897 -0.32966,0 -0.59939,-0.3066 -0.59939,-0.68135 0,-0.37474 -0.65773,-1.3867 -1.46163,-2.24881 -0.8039,-0.8621 -1.75178,-2.1789 -2.1064,-2.92621 -0.35462,-0.7473 -0.80764,-1.35874 -1.0067,-1.35874 -0.19906,0 -0.36192,-0.24248 -0.36192,-0.53884 0,-0.63365 -1.20122,-3.01188 -1.61391,-3.1953 -0.15664,-0.0696 -0.28481,-0.47046 -0.28481,-0.89076 0,-0.4203 -0.23881,-1.21776 -0.53069,-1.77214 -0.79442,-1.50882 -1.30589,-3.74009 -1.53059,-6.67716 -0.11071,-1.4472 -0.37576,-2.80573 -0.58898,-3.01896 -0.51793,-0.51793 -0.4955,-3.01401 0.0318,-3.54133 0.23073,-0.23073 0.51145,-1.8933 0.62383,-3.69461 0.11238,-1.8013 0.35081,-3.36562 0.52985,-3.47628 0.17904,-0.11065 0.32553,-0.63051 0.32553,-1.15525 0,-0.52474 0.25632,-1.2104 0.56961,-1.52368 0.31329,-0.31329 0.56961,-0.98462 0.56961,-1.49185 0,-0.50723 0.15731,-0.92223 0.34957,-0.92223 0.19227,0 0.46174,-0.5107 0.59883,-1.13488 0.1371,-0.62418 0.407,-1.23236 0.59979,-1.35151 0.19279,-0.11915 0.35053,-0.54832 0.35053,-0.95371 0,-0.40539 0.17139,-0.73707 0.38087,-0.73707 0.20948,0 0.677,-0.68354 1.03894,-1.51898 0.36193,-0.83543 0.87408,-1.51897 1.1381,-1.51897 0.26402,0 0.48003,-0.15294 0.48003,-0.33988 0,-0.18694 0.42426,-0.74231 0.9428,-1.23417 0.51853,-0.49185 0.94574,-1.19332 0.94935,-1.55882 0.004,-0.36551 0.26289,-0.66455 0.57618,-0.66455 0.31329,0 0.56961,-0.25633 0.56961,-0.56962 0,-0.31329 0.32212,-0.56961 0.71581,-0.56961 0.3937,0 0.99573,-0.42721 1.33786,-0.94936 0.34212,-0.52215 0.87443,-0.94936 1.1829,-0.94936 0.30847,0 0.56086,-0.21601 0.56086,-0.48003 0,-0.26402 0.68354,-0.77616 1.51897,-1.1381 0.83544,-0.36194 1.51897,-0.78774 1.51897,-0.94624 0,-0.15849 0.55538,-0.52205 1.23417,-0.8079 0.67879,-0.28585 1.73035,-0.75478 2.3368,-1.04206 0.60645,-0.28728 1.33807,-0.52232 1.62582,-0.52232 0.28776,0 0.62155,-0.25633 0.74177,-0.56962 0.13382,-0.34871 0.70957,-0.56961 1.48464,-0.56961 0.69634,0 1.35674,-0.14671 1.46756,-0.32602 0.11082,-0.17932 1.25142,-0.42123 2.53466,-0.53759 1.28324,-0.11636 2.51846,-0.39686 2.74494,-0.62334 0.54685,-0.54685 7.94748,-0.54685 8.49434,0 0.22647,0.22648 1.46169,0.50698 2.74494,0.62334 1.28324,0.11636 2.42384,0.35827 2.53466,0.53759 0.11082,0.17931 0.85666,0.32602 1.65742,0.32602 0.94385,0 1.53281,0.20034 1.67452,0.56961 0.12022,0.31329 0.46642,0.56962 0.76934,0.56962 0.6428,0 3.02204,1.19726 3.20721,1.6139 0.0696,0.15665 0.53955,0.28481 1.04429,0.28481 0.56258,0 0.91772,0.22043 0.91772,0.56962 0,0.31328 0.25632,0.56961 0.56961,0.56961 0.31329,0 0.56961,0.15095 0.56961,0.33545 0,0.1845 0.29905,0.44827 0.66455,0.58616 1.28574,0.48506 2.3734,1.16056 2.3734,1.47402 0,0.45268 1.01008,1.4018 1.49184,1.4018 0.22378,0 0.40687,0.25632 0.40687,0.56961 0,0.31329 0.22745,0.56962 0.50545,0.56962 0.27799,0 0.73408,0.42721 1.01352,0.94935 0.27945,0.52215 0.73553,0.94936 1.01353,0.94936 0.27799,0 0.50544,0.24209 0.50544,0.53797 0,0.29588 0.13545,0.59493 0.30098,0.66455 0.16554,0.0696 0.69213,0.7674 1.1702,1.55061 0.47807,0.78322 1.02617,1.42404 1.21799,1.42404 0.19183,0 0.34878,0.42721 0.34878,0.94936 0,0.52214 0.17088,0.94935 0.37974,0.94935 0.20886,0 0.37974,0.23541 0.37974,0.52312 0,0.28772 0.25633,0.73585 0.56961,0.99586 0.31329,0.26 0.56962,0.87902 0.56962,1.37559 0,0.49658 0.15586,0.90286 0.34636,0.90286 0.1905,0 0.46185,0.68354 0.603,1.51897 0.14114,0.83544 0.41249,1.51897 0.60299,1.51897 0.1905,0 0.34636,0.66526 0.34636,1.47835 0,0.96377 0.19827,1.55442 0.56962,1.69692 0.47614,0.18271 0.56961,1.30344 0.56961,6.8295 0,5.41311 -0.10321,6.69658 -0.56961,7.08366 -0.31329,0.26001 -0.56962,1.03982 -0.56962,1.73293 0,0.6931 -0.17088,1.3658 -0.37974,1.49488 -0.20886,0.12909 -0.38079,0.52366 -0.38208,0.87684 -10e-4,0.35317 -0.25762,1.1316 -0.56962,1.72984 -0.312,0.59823 -0.56727,1.40993 -0.56727,1.80377 0,0.39385 -0.16763,0.71608 -0.37251,0.71608 -0.20488,0 -0.47973,0.42721 -0.61078,0.94936 -0.13105,0.52214 -0.39063,0.94936 -0.57685,0.94936 -0.18621,0 -0.33857,0.42721 -0.33857,0.94935 0,0.59071 -0.21519,0.94936 -0.56962,0.94936 -0.31329,0 -0.56961,0.25633 -0.56961,0.56961 0,0.31329 -0.14339,0.56962 -0.31865,0.56962 -0.17526,0 -0.64519,0.68158 -1.0443,1.51461 -0.3991,0.83304 -0.85009,1.51658 -1.00219,1.51897 -0.42126,0.007 -4.47023,4.14555 -4.47023,4.56953 0,0.20432 -0.31682,0.37149 -0.70404,0.37149 -0.38722,0 -1.165,0.42721 -1.72841,0.94935 -0.5634,0.52215 -1.18645,0.94936 -1.38455,0.94936 -0.19809,0 -0.36017,0.25633 -0.36017,0.56961 0,0.35443 -0.35865,0.56962 -0.94936,0.56962 -0.52215,0 -0.94936,0.17088 -0.94936,0.37974 0,0.20886 -0.43257,0.37974 -0.96127,0.37974 -0.52871,0 -1.05964,0.25633 -1.17986,0.56962 -0.12022,0.31329 -0.61742,0.56961 -1.1049,0.56961 -0.48747,0 -0.98274,0.15602 -1.10059,0.3467 -0.11785,0.19069 -0.89602,0.46188 -1.72926,0.60266 -0.83325,0.14077 -1.61142,0.41197 -1.72927,0.60265 -0.11785,0.19069 -1.19683,0.34671 -2.39774,0.34671 -1.33196,0 -2.47093,0.21742 -2.92059,0.55753 -0.50549,0.38233 -1.6918,0.55754 -3.77507,0.55754 -2.08328,0 -3.26959,-0.17521 -3.77507,-0.55754 z m -9.10293,-10.62072 c 0.48391,-0.52214 1.05888,-0.94935 1.27771,-0.94935 0.21883,0 0.39788,-0.18309 0.39788,-0.40687 0,-0.52575 0.9661,-1.49185 1.49184,-1.49185 0.22378,0 0.40687,-0.25632 0.40687,-0.56961 0,-0.31329 0.25633,-0.56962 0.56961,-0.56962 0.31329,0 0.56962,-0.18309 0.56962,-0.40686 0,-0.52575 0.9661,-1.49185 1.49184,-1.49185 0.22378,0 0.40687,-0.15774 0.40687,-0.35053 0,-0.45606 2.23136,-2.68741 2.68741,-2.68741 0.19279,0 0.35053,-0.22745 0.35053,-0.50545 0,-0.27799 0.42721,-0.73408 0.94936,-1.01352 0.52215,-0.27945 0.94936,-0.73554 0.94936,-1.01353 0,-0.27799 0.25632,-0.50545 0.56961,-0.50545 0.31329,0 0.56962,-0.20074 0.56962,-0.4461 0,-0.40052 4.12073,3.40479 6.20414,5.72925 0.4516,0.50386 1.14089,1.18739 1.53174,1.51897 1.18894,1.00864 2.51717,2.47688 2.51717,2.78251 0,0.15878 0.16398,0.28869 0.3644,0.28869 0.20042,0 1.06175,0.68353 1.91406,1.51897 1.54012,1.50963 1.56785,1.51897 4.50907,1.51897 2.92526,0 2.9784,-0.0175 4.60476,-1.51897 0.90493,-0.83544 1.75094,-1.51897 1.88002,-1.51897 0.12907,0 0.53751,-0.51266 0.90764,-1.13923 0.37013,-0.62658 0.83418,-1.13923 1.03123,-1.13923 0.19705,0 0.35828,-0.35397 0.35828,-0.78661 0,-0.43263 0.25632,-1.04294 0.56961,-1.35623 0.74151,-0.74151 0.74151,-2.75169 0,-3.03623 -0.31329,-0.12023 -0.56961,-0.63972 -0.56961,-1.15444 0,-0.96684 -0.7781,-2.02083 -1.49185,-2.02083 -0.22378,0 -0.40687,-0.16499 -0.40687,-0.36665 0,-0.49614 -2.15407,-2.67129 -2.6454,-2.67129 -0.2159,0 -0.39254,-0.16499 -0.39254,-0.36665 0,-0.49614 -2.15407,-2.6713 -2.6454,-2.6713 -0.2159,0 -0.39254,-0.17664 -0.39254,-0.39254 0,-0.49133 -2.17515,-2.6454 -2.6713,-2.6454 -0.20165,0 -0.36664,-0.18309 -0.36664,-0.40687 0,-0.52574 -0.9661,-1.49184 -1.49185,-1.49184 -0.22378,0 -0.40687,-0.51265 -0.40687,-1.13923 0,-0.69521 0.197,-1.13923 0.50545,-1.13923 0.27799,0 0.73408,-0.42721 1.01352,-0.94936 0.27945,-0.52214 0.73553,-0.94935 1.01353,-0.94935 0.27799,0 0.50544,-0.22745 0.50544,-0.50545 0,-0.27799 0.42721,-0.73408 0.94936,-1.01352 0.52215,-0.27945 0.94936,-0.73553 0.94936,-1.01353 0,-0.27799 0.25632,-0.50544 0.56961,-0.50544 0.31329,0 0.56962,-0.1831 0.56962,-0.40687 0,-0.52575 0.9661,-1.49185 1.49184,-1.49185 0.22378,0 0.40687,-0.25633 0.40687,-0.56961 0,-0.31329 0.25633,-0.56962 0.56961,-0.56962 0.31329,0 0.56962,-0.18309 0.56962,-0.40686 0,-0.52575 0.9661,-1.49185 1.49184,-1.49185 0.22378,0 0.40687,-0.17905 0.40687,-0.39788 0,-0.21883 0.42721,-0.7938 0.94936,-1.27771 0.52215,-0.4839 0.94936,-1.17149 0.94936,-1.52796 0,-0.35647 0.25632,-0.90445 0.56961,-1.21774 0.72436,-0.72436 0.72971,-2.05726 0.0121,-3.00605 -0.30665,-0.40542 -0.56297,-1.00705 -0.56962,-1.33696 -0.0164,-0.81399 -4.66636,-5.57737 -5.90389,-6.04788 -1.56304,-0.59426 -4.61439,-0.44733 -5.97652,0.28778 -0.67804,0.36593 -4.01829,3.44184 -7.42279,6.83537 -3.4045,3.39353 -6.27741,6.17006 -6.38424,6.17006 -0.10683,0 -1.38098,-1.19619 -2.83143,-2.6582 -1.45045,-1.46201 -2.80693,-2.6582 -3.01439,-2.6582 -0.20747,0 -0.37721,-0.16499 -0.37721,-0.36665 0,-0.49614 -2.15407,-2.67129 -2.6454,-2.67129 -0.2159,0 -0.39254,-0.165 -0.39254,-0.36665 0,-0.49614 -2.15407,-2.6713 -2.6454,-2.6713 -0.2159,0 -0.39254,-0.25632 -0.39254,-0.56961 0,-0.31329 -0.24209,-0.56961 -0.53797,-0.56961 -0.29588,0 -0.60917,-0.21361 -0.6962,-0.47468 -0.10881,-0.32645 -1.09703,-0.47468 -3.16452,-0.47468 h -3.0063 l -2.18352,2.15877 c -1.20094,1.18733 -2.18352,2.3408 -2.18352,2.56327 0,0.22247 -0.25633,0.40449 -0.56961,0.40449 -0.31329,0 -0.56962,0.25632 -0.56962,0.56961 0,0.31329 -0.15186,0.56961 -0.33748,0.56961 -0.51078,0 -0.88472,2.5622 -0.61067,4.18428 0.25673,1.51962 1.70311,3.39522 5.09483,6.60675 0.64334,0.60917 1.16972,1.24999 1.16972,1.42403 0,0.17405 0.1911,0.31646 0.42467,0.31646 0.449,0 2.59688,2.2681 2.60721,2.75313 0.003,0.15665 0.26239,0.28481 0.57568,0.28481 0.31329,0 0.56961,0.14273 0.56961,0.31718 0,0.17444 0.76552,1.09366 1.70116,2.0427 l 1.70115,1.72553 -6.44794,6.52195 c -3.54636,3.58708 -6.44794,6.75484 -6.44794,7.03948 0,0.28464 -0.2136,0.58897 -0.47468,0.67629 -0.65069,0.21764 -0.64304,5.29138 0.008,5.5085 0.25651,0.0855 0.46637,0.39754 0.46637,0.69342 0,0.29589 0.25633,0.53797 0.56962,0.53797 0.31328,0 0.56961,0.18309 0.56961,0.40687 0,0.52575 0.9661,1.49185 1.49185,1.49185 0.22377,0 0.40686,0.25632 0.40686,0.56961 0,0.31329 0.25633,0.56962 0.56962,0.56962 0.31329,0 0.56961,0.19476 0.56961,0.43281 0,0.97693 1.38295,1.44196 4.3235,1.45382 2.71424,0.0109 3.07671,-0.0767 3.87423,-0.93728 z"
         id="path17"
         transform="scale(0.26458333)" /><path
         style="fill:#000000;stroke:#bcfafd;stroke-width:0.379743;stroke-opacity:0"
         d="m 501.26048,568.47496 c -0.19852,-0.52215 -0.60185,-0.94936 -0.89628,-0.94936 -0.61738,0 -1.76192,-1.59474 -1.76192,-2.45497 0,-0.32063 0.17089,-0.58297 0.37975,-0.58297 0.20885,0 0.37974,-0.25633 0.37974,-0.56962 0,-0.31329 0.18309,-0.56961 0.40687,-0.56961 0.52574,0 1.49184,-0.9661 1.49184,-1.49185 0,-0.22378 0.25633,-0.40687 0.56962,-0.40687 0.31328,0 0.56961,-0.25632 0.56961,-0.56961 0,-0.31329 0.18309,-0.56961 0.40687,-0.56961 0.52574,0 1.49184,-0.96611 1.49184,-1.49185 0,-0.22378 0.25633,-0.40687 0.56962,-0.40687 0.31329,0 0.56961,-0.22745 0.56961,-0.50544 0,-0.278 0.42721,-0.73408 0.94936,-1.01353 0.52215,-0.27944 0.94936,-0.73553 0.94936,-1.01352 0,-0.278 0.18309,-0.50545 0.40686,-0.50545 0.52575,0 1.49185,-0.9661 1.49185,-1.49185 0,-0.22377 0.25633,-0.40686 0.56962,-0.40686 0.31328,0 0.56961,-0.25633 0.56961,-0.56962 0,-0.31329 0.19477,-0.56961 0.43281,-0.56961 0.61745,0 1.43962,-1.19188 1.45383,-2.10757 0.007,-0.42816 0.2214,-0.9878 0.47724,-1.24365 0.36707,-0.36706 0.36707,-0.62226 0,-1.21002 -0.25584,-0.40967 -0.46517,-1.00569 -0.46517,-1.32449 0,-0.636 -6.96992,-7.78501 -7.58998,-7.78501 -0.21154,0 -0.38462,-0.18403 -0.38462,-0.40896 0,-0.53147 -2.09751,-2.62899 -2.62898,-2.62899 -0.22493,0 -0.40896,-0.19342 -0.40896,-0.42983 0,-0.23642 -0.59809,-0.99392 -1.3291,-1.68335 -0.731,-0.68942 -1.3291,-1.40179 -1.3291,-1.58304 0,-0.73673 0.98095,-2.37393 1.42404,-2.3767 0.26107,-0.002 0.47468,-0.23936 0.47468,-0.52828 0,-0.28893 0.29904,-0.62574 0.66455,-0.74846 0.3655,-0.12273 0.93711,-0.42413 1.27025,-0.66978 0.51283,-0.37816 1.69454,0.63899 7.70781,6.63447 l 7.10212,7.08112 2.35537,-0.0121 c 2.30473,-0.0118 3.68446,-0.55623 3.68446,-1.45382 0,-0.23805 0.25633,-0.43282 0.56962,-0.43282 0.31329,0 0.56961,-0.25632 0.56961,-0.56961 0,-0.31329 0.18309,-0.56962 0.40687,-0.56962 0.52574,0 1.49185,-0.9661 1.49185,-1.49184 0,-0.22378 0.15774,-0.40687 0.35053,-0.40687 0.45605,0 2.68741,-2.23136 2.68741,-2.68741 0,-0.19279 0.18309,-0.35053 0.40687,-0.35053 0.52574,0 1.49184,-0.9661 1.49184,-1.49185 0,-0.22378 0.25633,-0.40687 0.56962,-0.40687 0.31328,0 0.56961,-0.25632 0.56961,-0.56961 0,-0.31329 0.18309,-0.56961 0.40687,-0.56961 0.52574,0 1.49185,-0.96611 1.49185,-1.49185 0,-0.22378 0.18309,-0.40687 0.40686,-0.40687 0.22378,0 0.6632,-0.25632 0.97648,-0.56961 0.79664,-0.79663 0.87445,-0.7672 2.85971,1.08166 1.65981,1.54576 1.98916,2.09582 1.87782,3.13621 -0.0247,0.23124 -2.9073,3.28615 -6.40568,6.78868 -7.03488,7.04322 -7.6843,7.8459 -7.68587,9.49956 -0.002,1.80093 1.08095,3.17635 7.71755,9.80447 3.42502,3.42064 6.31298,6.45889 6.41769,6.75165 0.2451,0.68527 -0.86245,2.62089 -1.49966,2.62089 -0.26825,0 -0.48773,0.19477 -0.48773,0.43281 0,0.23805 -0.29905,0.65983 -0.66455,0.93728 -0.78327,0.59458 -2.3734,0.69433 -2.3734,0.14888 0,-0.20886 -0.25632,-0.37974 -0.56961,-0.37974 -0.31329,0 -0.56961,-0.18403 -0.56961,-0.40896 0,-0.53147 -2.09752,-2.62898 -2.62899,-2.62898 -0.22493,0 -0.40896,-0.18203 -0.40896,-0.40451 0,-0.52719 -4.00496,-4.53215 -4.53215,-4.53215 -0.22247,0 -0.4045,-0.18403 -0.4045,-0.40895 0,-0.53148 -2.09752,-2.62899 -2.62899,-2.62899 -0.22493,0 -0.40896,-0.19356 -0.40896,-0.43014 0,-1.02778 -1.64018,-1.84832 -3.69463,-1.84832 h -2.05946 l -7.06375,7.02524 c -7.44258,7.40199 -8.45024,8.06695 -9.20724,6.07589 z"
         id="path18"
         transform="scale(0.26458333)" /><path
         style="fill:#000000;stroke:#bcfafd;stroke-width:0.379743;stroke-opacity:0"
         d="m 440.69151,582.33557 c -0.81933,-0.41772 -1.79533,-0.75949 -2.16888,-0.75949 -0.37356,0 -0.67919,-0.15937 -0.67919,-0.35415 0,-0.19478 -0.34177,-0.46263 -0.75949,-0.5952 -0.74817,-0.23747 -0.75948,-0.57457 -0.75948,-22.62029 V 535.6272 h 1.63626 c 0.89994,0 1.96797,-0.25089 2.37339,-0.55753 0.40542,-0.30665 1.03618,-0.56297 1.40168,-0.56962 0.62611,-0.0114 0.66455,1.3938 0.66455,24.29146 0,13.36695 -0.0493,24.30354 -0.10958,24.30354 -0.0603,0 -0.77993,-0.34176 -1.59926,-0.75948 z"
         id="path19"
         transform="scale(0.26458333)" /><path
         style="fill:#000000;fill-opacity:0.997793;stroke:#bcfafd;stroke-width:0.264583;stroke-opacity:0"
         d="m 113.93045,138.57439 c 0.23977,0.0355 0.71934,0.10657 1.08345,0.27234 0.36411,0.16578 0.61277,0.42627 0.84367,0.68677 0.2309,0.26051 0.44403,0.52101 0.51804,0.6927 0.074,0.17169 0.009,0.25458 -0.12434,0.35227 -0.13321,0.0977 -0.3345,0.21017 -0.46475,0.23682 -0.13024,0.0266 -0.18945,-0.0326 -0.22497,-0.12434 -0.0355,-0.0918 -0.0474,-0.21609 -0.0799,-0.33746 -0.0326,-0.12138 -0.0858,-0.23978 -0.18945,-0.36115 -0.10361,-0.12137 -0.25754,-0.2457 -0.41739,-0.33451 -0.15986,-0.0888 -0.32563,-0.14209 -0.48252,-0.16873 -0.15689,-0.0266 -0.3049,-0.0266 -0.43515,-0.0148 -0.13026,0.0118 -0.24275,0.0355 -0.31971,0.006 -0.077,-0.0296 -0.11841,-0.1125 -0.13618,-0.23091 -0.0178,-0.11841 -0.0119,-0.27234 -0.009,-0.39075 0.003,-0.11842 0.003,-0.20129 0.0355,-0.24865 0.0325,-0.0474 0.0977,-0.0592 0.13027,-0.0651 0.0326,-0.006 0.0326,-0.006 0.27237,0.0296 z"
         id="path25"
         inkscape:path-effect="#path-effect25"
         inkscape:original-d="m 113.69068,138.53887 c 0.47955,0.071 0.95911,0.14209 1.43867,0.21313 0.24866,0.26051 0.49732,0.521 0.74598,0.7815 0.21314,0.26051 0.42627,0.52101 0.63941,0.78151 -0.0651,0.0829 -0.13025,0.16577 -0.19538,0.24865 -0.2013,0.1125 -0.40259,0.22498 -0.60388,0.33747 -0.0592,-0.0592 -0.11841,-0.11841 -0.17762,-0.17761 -0.0118,-0.12434 -0.0237,-0.24866 -0.0355,-0.37299 -0.0533,-0.11841 -0.10657,-0.23682 -0.15985,-0.35523 -0.15394,-0.12433 -0.30787,-0.24866 -0.4618,-0.37299 -0.16577,-0.0533 -0.33155,-0.10657 -0.49732,-0.15985 -0.14801,0 -0.29602,0 -0.44403,0 -0.11249,0.0237 -0.22498,0.0474 -0.33747,0.071 -0.0414,-0.0829 -0.0829,-0.16577 -0.12433,-0.24865 0.006,-0.15394 0.0118,-0.30787 0.0177,-0.4618 0,-0.0829 0,-0.16577 0,-0.24866 0.0651,-0.0118 0.13025,-0.0237 0.19538,-0.0355 z" /><path
         style="fill:#000000;fill-opacity:0.997793;stroke:#bcfafd;stroke-width:0.264583;stroke-opacity:0"
         d="m 113.93045,138.57439 c 0.23977,0.0355 0.71934,0.10657 1.08345,0.27234 0.36411,0.16578 0.61277,0.42627 0.84367,0.68677 0.2309,0.26051 0.44403,0.52101 0.51804,0.6927 0.074,0.17169 0.009,0.25458 -0.12434,0.35227 -0.13321,0.0977 -0.3345,0.21017 -0.46475,0.23682 -0.13024,0.0266 -0.18945,-0.0326 -0.22497,-0.12434 -0.0355,-0.0918 -0.0474,-0.21609 -0.0799,-0.33746 -0.0326,-0.12138 -0.0858,-0.23978 -0.18945,-0.36115 -0.10361,-0.12137 -0.25754,-0.2457 -0.41739,-0.33451 -0.15986,-0.0888 -0.32563,-0.14209 -0.48252,-0.16873 -0.15689,-0.0266 -0.3049,-0.0266 -0.43515,-0.0148 -0.13026,0.0118 -0.24275,0.0355 -0.31971,0.006 -0.077,-0.0296 -0.11841,-0.1125 -0.13618,-0.23091 -0.0178,-0.11841 -0.0119,-0.27234 -0.009,-0.39075 0.003,-0.11842 0.003,-0.20129 0.0355,-0.24865 0.0325,-0.0474 0.0977,-0.0592 0.13027,-0.0651 0.0326,-0.006 0.0326,-0.006 0.27237,0.0296 z"
         id="path25-4"
         inkscape:path-effect="#path-effect25-7"
         inkscape:original-d="m 113.69068,138.53887 c 0.47955,0.071 0.95911,0.14209 1.43867,0.21313 0.24866,0.26051 0.49732,0.521 0.74598,0.7815 0.21314,0.26051 0.42627,0.52101 0.63941,0.78151 -0.0651,0.0829 -0.13025,0.16577 -0.19538,0.24865 -0.2013,0.1125 -0.40259,0.22498 -0.60388,0.33747 -0.0592,-0.0592 -0.11841,-0.11841 -0.17762,-0.17761 -0.0118,-0.12434 -0.0237,-0.24866 -0.0355,-0.37299 -0.0533,-0.11841 -0.10657,-0.23682 -0.15985,-0.35523 -0.15394,-0.12433 -0.30787,-0.24866 -0.4618,-0.37299 -0.16577,-0.0533 -0.33155,-0.10657 -0.49732,-0.15985 -0.14801,0 -0.29602,0 -0.44403,0 -0.11249,0.0237 -0.22498,0.0474 -0.33747,0.071 -0.0414,-0.0829 -0.0829,-0.16577 -0.12433,-0.24865 0.006,-0.15394 0.0118,-0.30787 0.0177,-0.4618 0,-0.0829 0,-0.16577 0,-0.24866 0.0651,-0.0118 0.13025,-0.0237 0.19538,-0.0355 z"
         transform="rotate(-165.42218,115.59342,138.59283)" /><path
         style="fill:#000000;fill-opacity:0.997793;stroke:#bcfafd;stroke-width:0.264583;stroke-opacity:0"
         d="m 112.81889,155.35742 c 0.14061,-0.0992 0.42183,-0.2975 0.7445,-0.44255 0.32268,-0.14505 0.68677,-0.23682 1.05089,-0.23978 0.36411,-0.003 0.72821,0.0829 1.02572,0.19834 0.2975,0.11545 0.52839,0.2605 0.75337,0.41295 0.22498,0.15246 0.44403,0.3123 0.60685,0.43072 0.16283,0.11842 0.26938,0.19537 0.38483,0.24866 0.11545,0.0533 0.23978,0.0829 0.35671,0.0977 0.11693,0.0148 0.22645,0.0148 0.34783,0.0118 0.12137,-0.003 0.25457,-0.009 0.4011,-0.0518 0.14653,-0.0429 0.30639,-0.12285 0.42627,-0.17761 0.11987,-0.0548 0.19982,-0.0844 0.28274,-0.10509 0.0829,-0.0207 0.1687,-0.0325 0.24713,-0.006 0.0784,0.0266 0.14951,0.0918 0.19095,0.16875 0.0414,0.077 0.0533,0.16578 0.0488,0.25903 -0.004,0.0933 -0.0252,0.19092 -0.0918,0.26789 -0.0666,0.077 -0.1791,0.13322 -0.39076,0.2013 -0.21165,0.0681 -0.52248,0.14801 -0.79187,0.19389 -0.26938,0.0459 -0.49731,0.0577 -0.69861,0.0311 -0.20129,-0.0266 -0.37595,-0.0918 -0.54172,-0.14949 -0.16577,-0.0577 -0.32266,-0.10805 -0.45143,-0.19093 -0.12878,-0.0829 -0.22942,-0.19834 -0.36708,-0.31083 -0.13765,-0.11249 -0.3123,-0.22202 -0.45736,-0.31527 -0.14506,-0.0933 -0.26049,-0.17021 -0.37002,-0.22645 -0.10952,-0.0562 -0.21316,-0.0918 -0.336,-0.10953 -0.12284,-0.0178 -0.26492,-0.0178 -0.42478,-0.0133 -0.15986,0.004 -0.33747,0.0133 -0.47808,0.0503 -0.1406,0.037 -0.24421,0.10212 -0.35522,0.18649 -0.11101,0.0844 -0.22942,0.18797 -0.35227,0.25309 -0.12284,0.0651 -0.25015,0.0918 -0.37595,0.10211 -0.12581,0.0103 -0.25014,0.004 -0.34781,-0.0207 -0.0977,-0.0252 -0.16875,-0.0696 -0.22203,-0.15395 -0.0533,-0.0844 -0.0888,-0.20869 -0.0903,-0.29602 -0.001,-0.0873 0.0311,-0.13764 0.0592,-0.16578 0.0281,-0.0282 0.0518,-0.0341 0.0636,-0.037 0.0118,-0.003 0.0119,-0.003 0.15251,-0.10196 z"
         id="path26"
         inkscape:path-effect="#path-effect26"
         inkscape:original-d="m 112.67828,155.45659 c 0.28122,-0.19833 0.56244,-0.39667 0.84366,-0.595 0.36412,-0.0918 0.72822,-0.18354 1.09233,-0.27531 0.36411,0.0859 0.72822,0.1717 1.09232,0.25754 0.23091,0.14506 0.4618,0.29011 0.6927,0.43516 0.21906,0.15986 0.43811,0.3197 0.65717,0.47956 0.10657,0.077 0.21314,0.15393 0.31971,0.2309 0.12433,0.0296 0.24866,0.0592 0.37298,0.0888 0.10954,0 0.21906,0 0.32859,0 0.13322,-0.006 0.26642,-0.0118 0.39963,-0.0178 0.15986,-0.0799 0.31971,-0.15985 0.47956,-0.23978 0.0799,-0.0296 0.15985,-0.0592 0.23978,-0.0888 0.0859,-0.0119 0.17169,-0.0237 0.25754,-0.0355 0.071,0.0651 0.14209,0.13025 0.21314,0.19537 0.0118,0.0888 0.0237,0.17762 0.0355,0.26643 -0.0207,0.0977 -0.0414,0.19537 -0.0622,0.29306 -0.11249,0.0562 -0.22497,0.11249 -0.33746,0.16873 -0.31083,0.0799 -0.62165,0.15986 -0.93248,0.23978 -0.22794,0.0119 -0.45587,0.0237 -0.68381,0.0355 -0.17466,-0.0651 -0.34931,-0.13025 -0.52396,-0.19537 -0.1569,-0.0503 -0.31378,-0.10065 -0.47068,-0.15097 -0.10065,-0.11545 -0.20129,-0.2309 -0.30194,-0.34635 -0.17466,-0.10953 -0.34931,-0.21906 -0.52396,-0.32859 -0.11545,-0.077 -0.2309,-0.15393 -0.34635,-0.23089 -0.10361,-0.0355 -0.20722,-0.0711 -0.31082,-0.10657 -0.1421,0 -0.28418,0 -0.42628,0 -0.17761,0.009 -0.35523,0.0178 -0.53284,0.0266 -0.10361,0.0651 -0.20721,0.13025 -0.31082,0.19537 -0.11841,0.10362 -0.23682,0.20722 -0.35523,0.31083 -0.12729,0.0266 -0.25458,0.0533 -0.38187,0.0799 -0.12433,-0.006 -0.24866,-0.0118 -0.37299,-0.0178 -0.071,-0.0444 -0.14209,-0.0888 -0.21314,-0.13321 -0.0355,-0.12433 -0.071,-0.24866 -0.10657,-0.37299 0.0326,-0.0503 0.0651,-0.10064 0.0977,-0.15097 0.0237,-0.006 0.0474,-0.0118 0.071,-0.0178 z" /></g></g></svg>
