<?xml version="1.0" encoding="UTF-8" standalone="no"?>
<!-- Created with Inkscape (http://www.inkscape.org/) -->

<svg
   width="21cm"
   height="21cm"
   viewBox="0 0 210 210"
   version="1.1"
   id="svg1"
   xml:space="preserve"
   inkscape:export-filename="poste.svg"
   inkscape:export-xdpi="96"
   inkscape:export-ydpi="96"
   xmlns:inkscape="http://www.inkscape.org/namespaces/inkscape"
   xmlns:sodipodi="http://sodipodi.sourceforge.net/DTD/sodipodi-0.dtd"
   xmlns="http://www.w3.org/2000/svg"
   xmlns:svg="http://www.w3.org/2000/svg"><sodipodi:namedview
     id="namedview1"
     pagecolor="#ffffff"
     bordercolor="#000000"
     borderopacity="0.25"
     inkscape:showpageshadow="2"
     inkscape:pageopacity="0.0"
     inkscape:pagecheckerboard="0"
     inkscape:deskcolor="#d1d1d1"
     inkscape:document-units="mm" /><defs
     id="defs1" /><g
     inkscape:label="Capa 1"
     inkscape:groupmode="layer"
     id="layer1"><g
       id="g3"
       transform="matrix(1.8733448,0,0,1.8733448,-65.410041,-83.686309)"><path
         style="fill:#1a1a1a;stroke:#bcfafd;stroke-width:0.759486"
         d="m 280.84881,573.68945 c -2.89457,-0.81604 -9.71246,-6.21251 -9.71246,-7.68757 0,-0.45375 -0.59809,-1.48634 -1.3291,-2.29464 -1.042,-1.15218 -1.32686,-2.82419 -1.31874,-7.74029 0.006,-3.44885 0.38815,-6.74476 0.8499,-7.32424 0.46174,-0.57948 1.2506,-2.93333 1.753,-5.23078 0.5024,-2.29744 1.22046,-4.86071 1.59567,-5.69614 0.70032,-1.55928 2.87189,-9.57884 5.14142,-18.98714 0.70535,-2.92402 1.49889,-5.65817 1.76342,-6.07588 0.26453,-0.41772 0.90177,-3.32275 1.4161,-6.45563 0.51431,-3.13288 1.2007,-6.03791 1.5253,-6.45563 0.3246,-0.41772 1.00602,-2.8101 1.51429,-5.3164 0.50826,-2.5063 1.1918,-4.89868 1.51897,-5.3164 0.32717,-0.41771 1.01071,-2.81009 1.51897,-5.3164 0.50826,-2.5063 1.18408,-4.89868 1.50182,-5.3164 0.31775,-0.41771 0.99472,-2.63921 1.5044,-4.93665 0.50967,-2.29745 1.37983,-5.54425 1.93368,-7.21511 0.55385,-1.67087 1.91566,-7.13917 3.02625,-12.15177 1.1106,-5.01261 2.47687,-10.4809 3.03619,-12.15177 0.55931,-1.67087 1.45279,-4.91767 1.98552,-7.21512 0.53272,-2.29744 1.20903,-4.51894 1.5029,-4.93665 0.29388,-0.41772 0.95087,-2.78972 1.45999,-5.27112 0.50911,-2.4814 1.28362,-5.08483 1.72114,-5.78541 0.43752,-0.70057 0.5814,-1.8317 0.31972,-2.5136 -0.43186,-1.12541 -4.2245,-1.23984 -41.0919,-1.23984 h -40.61612 l -3.63505,-1.93278 c -4.4304,-2.35566 -6.64298,-4.34423 -9.25758,-8.32028 -1.74669,-2.6562 -1.99642,-3.81218 -1.98736,-9.19945 0.006,-3.38883 0.38815,-6.63563 0.8499,-7.21511 0.46174,-0.57948 1.25059,-2.93333 1.753,-5.23078 0.5024,-2.29744 1.22046,-4.8607 1.59567,-5.69614 1.03596,-2.30661 6.39793,-23.23303 8.076,-31.51865 0.63451,-3.13288 1.41717,-6.03791 1.73928,-6.45563 0.32209,-0.41771 1.01112,-3.06642 1.53118,-5.88601 0.52005,-2.81959 1.18591,-5.12653 1.4797,-5.12653 0.29378,0 0.98317,-2.30693 1.53196,-5.12652 0.5488,-2.81959 1.25469,-5.4683 1.56864,-5.88602 0.31395,-0.41772 1.11082,-2.98098 1.77083,-5.69614 0.66001,-2.71516 1.72567,-6.80542 2.36813,-9.08947 1.78749,-6.35477 1.62151,-6.88871 -3.80001,-12.22383 -2.73248,-2.68892 -15.12159,-14.92099 -27.53136,-27.18238 -12.40977,-12.26137 -22.79588,-22.51443 -23.08025,-22.78456 -0.56677,-0.53839 -14.33595,-14.29978 -15.9492,-15.94017 -0.55106,-0.56034 -4.46928,-4.50472 -8.70716,-8.7653 -8.31061,-8.35515 -9.37473,-10.34807 -9.37473,-17.55738 0,-5.40732 1.26401,-9.26252 4.0381,-12.31608 4.96895,-5.46954 12.55061,-7.49629 19.5176,-5.21751 3.67365,1.20159 14.36247,11.73883 184.16096,181.54916 99.14352,99.15044 180.88418,180.47133 181.6459,180.7131 0.76173,0.24176 2.23922,2.23789 3.28334,4.43584 2.61097,5.49633 2.62498,12.34111 0.0364,17.78648 -5.26639,11.07853 -22.39019,12.61932 -31.27465,2.8141 -1.40757,-1.55343 -8.0275,-8.23737 -14.71097,-14.85318 -6.68348,-6.61581 -12.39549,-12.27954 -12.69336,-12.58607 -1.86345,-1.91761 -15.59628,-15.67607 -24.14169,-24.18676 -3.96832,-3.95218 -7.50743,-7.47897 -7.86469,-7.83729 -7.82635,-7.84957 -27.41589,-27.40424 -27.93279,-27.88307 -0.38566,-0.35726 -3.34015,-3.3841 -6.56554,-6.72631 -7.59041,-7.86535 -11.90095,-11.77118 -12.99088,-11.77118 -0.92586,0 -6.25317,5.18816 -10.52807,10.25306 -1.41025,1.67087 -5.70467,6.42513 -9.54315,10.56503 -11.59945,12.51028 -17.4621,18.93499 -20.53125,22.49961 -1.60566,1.86487 -6.04865,6.77614 -9.87331,10.91395 -14.59938,15.79471 -17.00829,18.44569 -21.27216,23.40984 -2.41433,2.81084 -6.16135,6.96703 -8.32672,9.23597 -2.16538,2.26895 -7.67171,8.2469 -12.2363,13.28433 -4.58592,5.06098 -9.48712,9.72266 -10.95412,10.4188 -3.24403,1.53939 -10.88354,2.03913 -14.70459,0.96189 z m 50.41905,-93.60381 c 1.45398,-1.41209 4.43792,-4.6304 6.63097,-7.15181 2.19305,-2.5214 6.60959,-7.29643 9.81453,-10.61119 17.03708,-17.62078 24.43457,-26.07687 24.43457,-27.93118 0,-1.63223 -22.8529,-24.64899 -24.47352,-24.64899 -1.10051,0 -1.74096,1.66994 -5.53416,14.43023 -0.55878,1.87972 -1.41364,5.63918 -1.89969,8.35434 -0.48605,2.71516 -1.15748,5.27842 -1.49205,5.69614 -0.33459,0.41772 -1.04461,2.8101 -1.57785,5.3164 -0.53323,2.5063 -1.21006,4.89868 -1.50405,5.3164 -0.294,0.41771 -0.96583,2.63921 -1.49296,4.93665 -0.52712,2.29745 -1.21737,4.51894 -1.53388,4.93666 -0.31651,0.41772 -1.01176,2.8101 -1.54499,5.3164 -0.53324,2.5063 -1.23339,4.90788 -1.5559,5.33684 -0.96095,1.27812 -3.11294,11.6493 -2.59207,12.49208 0.77004,1.24596 1.51264,0.93852 4.32105,-1.78897 z m -18.3598,-104.09469 c 0,-0.85456 -9.35761,-10.86904 -14.23599,-15.2353 -1.43509,-1.28443 -13.72946,-13.60211 -24.67806,-24.72482 -4.13161,-4.19731 -7.82769,-7.34712 -8.37491,-7.13713 -0.94224,0.36157 -3.71703,8.49824 -4.7791,14.01404 -0.28152,1.46201 -0.78202,2.99997 -1.11225,3.41768 -0.33021,0.41772 -1.02917,2.98098 -1.55323,5.69615 -0.52407,2.71516 -1.16585,5.10754 -1.42618,5.31639 -0.26033,0.20886 -1.03031,2.60124 -1.71107,5.3164 -0.68076,2.71516 -1.7643,6.7889 -2.40787,9.05275 -0.64358,2.26384 -0.99472,4.39989 -0.78034,4.74678 0.21439,0.34689 14.04037,0.6307 30.7244,0.6307 25.89579,0 30.3346,-0.16003 30.3346,-1.09364 z"
         id="path2"
         transform="scale(0.26458333)" /><path
         style="fill:#1a1a1a;stroke:#bcfafd;stroke-width:0.759486"
         d="m 446.20505,391.88794 c -6.26167,-2.22967 -11.7793,-10.32349 -11.7793,-17.27905 0,-7.05723 1.39831,-9.21067 16.58538,-25.54199 10.14665,-10.91114 10.08867,-10.83702 9.8394,-12.57878 -0.2201,-1.53803 -0.6447,-1.55912 -38.95629,-1.93472 -42.14212,-0.41316 -41.07872,-0.30212 -46.47572,-4.85308 -2.70725,-2.28287 -5.54904,-8.9217 -5.54904,-12.96336 0,-2.80123 2.66302,-15.05515 3.80301,-17.49964 0.75431,-1.61745 3.08055,-10.23617 5.12472,-18.98714 0.68304,-2.92402 1.45937,-5.48728 1.72518,-5.69614 0.26582,-0.20886 0.93384,-2.60124 1.4845,-5.3164 0.55067,-2.71516 1.26805,-5.2848 1.59418,-5.71031 0.32614,-0.42551 0.98091,-3.15966 1.45506,-6.07588 0.47414,-2.91623 1.15692,-5.98577 1.51728,-6.82121 0.36036,-0.83543 1.07431,-3.3987 1.58655,-5.69614 0.51224,-2.29744 1.21763,-4.68982 1.56753,-5.3164 0.3499,-0.62658 1.12744,-3.18984 1.72786,-5.69614 0.60042,-2.5063 1.83931,-7.36751 2.75308,-10.80269 0.91378,-3.43517 1.46124,-6.76742 1.21657,-7.40498 -0.39273,-1.02345 -6.44735,-1.15921 -51.69586,-1.15921 H 292.4781 l -3.64563,2.46832 c -3.36354,2.27733 -4.11768,2.46833 -9.74602,2.46833 -5.76434,0 -6.30319,-0.14643 -9.78176,-2.6582 -2.307,-1.66581 -4.42439,-4.07589 -5.67164,-6.45562 -1.80478,-3.44352 -1.97443,-4.49634 -1.82033,-11.29664 0.14478,-6.38871 0.47936,-8.15446 2.25942,-11.92414 1.82448,-3.86376 2.62163,-4.69459 6.28568,-6.55127 l 4.19622,-2.12635 74.37473,-0.20451 c 83.49424,-0.22959 79.72126,-0.45585 85.29203,5.11492 4.2524,4.2524 7.91872,14.87353 5.6238,16.29187 -0.36137,0.22334 -1.07703,2.55044 -1.59036,5.17135 -0.51333,2.6209 -1.20492,5.10705 -1.53688,5.52477 -0.33195,0.41771 -1.03982,2.81009 -1.57306,5.31639 -0.53323,2.50631 -1.21535,4.89869 -1.51582,5.3164 -0.30047,0.41772 -0.78542,1.95568 -1.07767,3.41769 -1.34999,6.75335 -4.34437,18.75709 -5.02061,20.12637 -0.41259,0.83543 -1.23394,3.39869 -1.82523,5.69614 -0.59128,2.29744 -1.98081,7.25309 -3.08784,11.01254 -1.10702,3.75945 -2.57872,9.05686 -3.27045,11.77203 -0.69172,2.71516 -1.49159,5.29781 -1.77749,5.73922 -0.28589,0.44142 -0.91836,3.17556 -1.40547,6.07589 -0.48711,2.90032 -1.16982,5.95685 -1.51713,6.79228 -1.45951,3.51072 -1.63342,5.13616 -0.61835,5.77933 0.56684,0.35918 22.12289,0.65828 47.90232,0.66467 41.07279,0.0102 47.31737,0.16294 50.47401,1.23464 5.0822,1.72546 6.85135,3.17262 9.18224,7.51107 1.69442,3.1538 2.04048,4.76288 2.04176,9.49357 0.002,7.16296 -1.48173,10.17691 -8.51143,17.29038 -2.81741,2.85099 -6.47444,6.96234 -8.12671,9.13633 -1.65227,2.17399 -3.2503,3.95272 -3.55117,3.95272 -0.30088,0 -3.16274,2.99047 -6.35969,6.6455 -5.36597,6.13483 -8.2837,9.336 -23.01698,25.25289 -2.89991,3.13288 -6.24063,6.85573 -7.42383,8.273 -4.47284,5.35774 -13.34818,7.53443 -20.43371,5.01138 z"
         id="path3"
         transform="scale(0.26458333)" /></g></g></svg>
