<svg width="55" height="45" viewBox="0 0 55 45" fill="none" xmlns="http://www.w3.org/2000/svg">
<path d="M34.375 15.4688V1.40625H3.4375V43.5938H17.1875V35.1562H20.625V43.5938H51.5625V15.4688H34.375ZM12.0312 37.9688H8.59375V35.1562H12.0312V37.9688ZM12.0312 30.9375H8.59375V28.125H12.0312V30.9375ZM12.0312 23.9062H8.59375V21.0938H12.0312V23.9062ZM12.0312 16.875H8.59375V14.0625H12.0312V16.875ZM12.0312 9.84375H8.59375V7.03125H12.0312V9.84375ZM25.7812 7.03125H29.2188V9.84375H25.7812V7.03125ZM20.625 30.9375H17.1875V28.125H20.625V30.9375ZM20.625 23.9062H17.1875V21.0938H20.625V23.9062ZM20.625 16.875H17.1875V14.0625H20.625V16.875ZM20.625 9.84375H17.1875V7.03125H20.625V9.84375ZM29.2188 37.9688H25.7812V35.1562H29.2188V37.9688ZM29.2188 30.9375H25.7812V28.125H29.2188V30.9375ZM29.2188 23.9062H25.7812V21.0938H29.2188V23.9062ZM29.2188 16.875H25.7812V14.0625H29.2188V16.875ZM48.125 40.7812H34.375V37.9688H37.8125V35.1562H34.375V30.9375H37.8125V28.125H34.375V23.9062H37.8125V21.0938H34.375V18.2812H48.125V40.7812Z" fill="#1A1A1A"/>
<path d="M41.25 35.1562H44.6875V37.9688H41.25V35.1562ZM41.25 28.125H44.6875V30.9375H41.25V28.125ZM41.25 21.0938H44.6875V23.9062H41.25V21.0938Z" fill="#1A1A1A"/>
</svg>
