<svg width="55" height="45" viewBox="0 0 55 45" fill="none" xmlns="http://www.w3.org/2000/svg">
<path d="M26.7708 11.6742L9.16739 26.9287V43.3927C9.16739 43.819 9.32834 44.2278 9.61483 44.5292C9.90132 44.8307 10.2899 45 10.6951 45L21.3944 44.9709C21.7982 44.9687 22.1848 44.7985 22.4697 44.4973C22.7545 44.1961 22.9144 43.7884 22.9144 43.3635V33.7487C22.9144 33.3225 23.0754 32.9136 23.3619 32.6122C23.6484 32.3108 24.0369 32.1414 24.4421 32.1414H30.5527C30.9579 32.1414 31.3464 32.3108 31.6329 32.6122C31.9194 32.9136 32.0804 33.3225 32.0804 33.7487V43.3565C32.0798 43.568 32.1188 43.7776 32.1953 43.9731C32.2718 44.1687 32.3842 44.3465 32.5261 44.4963C32.6681 44.6461 32.8367 44.7649 33.0223 44.846C33.208 44.9271 33.407 44.9689 33.608 44.9689L44.3036 45C44.7087 45 45.0973 44.8307 45.3838 44.5292C45.6703 44.2278 45.8312 43.819 45.8312 43.3927V26.9176L28.2316 11.6742C28.0247 11.4987 27.767 11.403 27.5012 11.403C27.2355 11.403 26.9777 11.4987 26.7708 11.6742ZM54.5771 22.0424L46.5951 15.1199V1.20549C46.5951 0.885775 46.4743 0.579154 46.2595 0.353081C46.0446 0.127007 45.7532 0 45.4493 0H40.1025C39.7986 0 39.5072 0.127007 39.2923 0.353081C39.0775 0.579154 38.9568 0.885775 38.9568 1.20549V8.49972L30.4085 1.10001C29.5882 0.389755 28.5588 0.00141981 27.4964 0.00141981C26.4341 0.00141981 25.4047 0.389755 24.5843 1.10001L0.415809 22.0424C0.29979 22.1433 0.203803 22.2673 0.133332 22.4072C0.0628612 22.5471 0.0192874 22.7003 0.00510062 22.858C-0.00908619 23.0156 0.00639197 23.1747 0.0506507 23.3261C0.0949095 23.4774 0.167081 23.6181 0.263043 23.7401L2.69775 26.8543C2.79345 26.9768 2.91116 27.0781 3.04415 27.1527C3.17713 27.2272 3.32278 27.2733 3.47274 27.2886C3.62271 27.3038 3.77406 27.2877 3.91812 27.2413C4.06218 27.1949 4.19613 27.119 4.3123 27.0181L26.7708 7.55542C26.9777 7.37994 27.2355 7.28425 27.5012 7.28425C27.767 7.28425 28.0247 7.37994 28.2316 7.55542L50.6911 27.0181C50.8071 27.119 50.9408 27.195 51.0847 27.2415C51.2285 27.2881 51.3797 27.3044 51.5296 27.2895C51.6794 27.2745 51.825 27.2287 51.958 27.1546C52.091 27.0804 52.2088 26.9794 52.3047 26.8573L54.7394 23.7432C54.8353 23.6204 54.9071 23.479 54.9509 23.327C54.9946 23.175 55.0094 23.0153 54.9943 22.8573C54.9792 22.6992 54.9346 22.5459 54.863 22.406C54.7914 22.2662 54.6942 22.1426 54.5771 22.0424Z" fill="black"/>
</svg>
