<svg width="27" height="25" viewBox="0 0 27 25" fill="none" xmlns="http://www.w3.org/2000/svg">
<path d="M26.2817 6.93509L23.9334 9.18616C23.694 9.41566 23.3069 9.41566 23.0675 9.18616L17.4133 3.76602C17.1739 3.53652 17.1739 3.16541 17.4133 2.93591L19.7615 0.684842C20.7141 -0.228281 22.2626 -0.228281 23.2203 0.684842L26.2817 3.61953C27.2393 4.53265 27.2393 6.01709 26.2817 6.93509ZM15.3961 4.86958L2.0196 17.6924L0.939701 23.6252C0.791979 24.426 1.5204 25.1194 2.3558 24.9827L8.54484 23.9426L21.9213 11.1198C22.1607 10.8903 22.1607 10.5192 21.9213 10.2897L16.2671 4.86958C16.0226 4.64008 15.6355 4.64008 15.3961 4.86958ZM7.24081 16.5937C6.96065 16.3251 6.96065 15.8954 7.24081 15.6268L15.0854 8.10701C15.3655 7.83845 15.8138 7.83845 16.094 8.10701C16.3741 8.37558 16.3741 8.80528 16.094 9.07385L8.2494 16.5937C7.96923 16.8622 7.52098 16.8622 7.24081 16.5937ZM5.40193 20.7003H7.84698V22.4728L4.56144 23.0246L2.97725 21.506L3.55285 18.3564H5.40193V20.7003Z" fill="black"/>
</svg>
