<?xml version="1.0" encoding="UTF-8" standalone="no"?>
<!-- Created with Inkscape (http://www.inkscape.org/) -->

<svg
   width="21cm"
   height="21cm"
   viewBox="0 0 210 210"
   version="1.1"
   id="svg1"
   xml:space="preserve"
   inkscape:export-filename="corteenergia.svg"
   inkscape:export-xdpi="96"
   inkscape:export-ydpi="96"
   xmlns:inkscape="http://www.inkscape.org/namespaces/inkscape"
   xmlns:sodipodi="http://sodipodi.sourceforge.net/DTD/sodipodi-0.dtd"
   xmlns="http://www.w3.org/2000/svg"
   xmlns:svg="http://www.w3.org/2000/svg"><sodipodi:namedview
     id="namedview1"
     pagecolor="#ffffff"
     bordercolor="#000000"
     borderopacity="0.25"
     inkscape:showpageshadow="2"
     inkscape:pageopacity="0.0"
     inkscape:pagecheckerboard="0"
     inkscape:deskcolor="#d1d1d1"
     inkscape:document-units="mm" /><defs
     id="defs1" /><g
     inkscape:label="Capa 1"
     inkscape:groupmode="layer"
     id="layer1"><g
       id="g12"
       transform="matrix(1.6787017,0,0,1.5371466,-48.802888,-75.771578)"><path
         style="fill:#000000;stroke:#bcfafd;stroke-width:1.07407"
         d="m 174.80567,694.68722 -2.9537,-1.86948 v -21.64 -21.64001 l -7.49707,-1.11272 c -4.87331,-0.72331 -9.56195,-2.29414 -13.39723,-4.48846 -5.9239,-3.38931 -15.62424,-13.26381 -15.62424,-15.90474 0,-0.77712 -0.96667,-3.4137 -2.14815,-5.85909 -2.1051,-4.35705 -2.14815,-6.64426 -2.14815,-114.12227 0,-60.54798 0.41785,-110.13317 0.93284,-110.69648 0.51306,-0.5612 1.80872,-3.37293 2.87925,-6.2483 2.4707,-6.6361 10.94651,-15.30505 18.75394,-19.18128 4.66134,-2.31425 8.09124,-3.0789 16.36918,-3.64927 l 10.47223,-0.72157 v -3.97779 c 0,-4.66097 4.11325,-12.98409 8.94859,-18.10739 1.8718,-1.98326 6.18244,-4.82561 9.5792,-6.31632 l 6.17593,-2.71039 v -9.52627 -9.52628 h -4.3308 c -2.38194,0 -6.00694,-0.70034 -8.05556,-1.55631 -3.0346,-1.26794 -3.72476,-2.13266 -3.72476,-4.66687 0,-4.47022 2.83476,-6.48197 9.67942,-6.86924 l 5.89466,-0.33352 0.30975,-8.72469 0.30976,-8.7247 -5.932,-0.49193 c -6.56443,-0.54437 -10.26159,-2.98081 -10.26159,-6.7624 0,-3.54486 3.32774,-5.90741 8.3208,-5.90741 7.65918,0 7.79032,-0.18319 7.79032,-10.88225 0,-9.01417 -0.14591,-9.63382 -2.47722,-10.52018 -7.88326,-2.99721 -13.6339,-11.79464 -13.6339,-20.8574 0,-6.32682 2.72532,-16.13825 5.34284,-19.23477 6.0119,-7.11206 11.11827,-11.46918 16.70277,-14.25203 l 6.41737,-3.19787 h 34.90743 34.90743 l 6.65891,3.48551 c 7.14569,3.74031 10.56576,6.71537 15.41446,13.40879 3.43568,4.74283 6.51117,14.13128 6.56065,20.02753 0.0647,7.70633 -6.51786,17.92776 -12.83694,19.93336 -2.35391,0.7471 -2.43526,1.1714 -2.1405,11.16444 l 0.30639,10.38783 5.3626,0.33802 c 12.71963,0.80175 12.28326,11.61408 -0.51838,12.84415 l -5.38125,0.51707 v 8.99299 8.99298 h 5.88265 c 5.08501,0 6.12051,0.36302 7.63692,2.67735 3.67579,5.60998 -0.79467,10.21155 -9.92059,10.21155 h -3.59898 v 10.03179 10.03179 l 4.56481,1.49004 c 4.01153,1.30942 9.72411,6.08473 14.60515,12.20885 1.50619,1.88977 2.70735,5.82569 3.87311,12.69126 l 0.68391,4.02778 h 25.58954 25.58954 l 1.32517,-5.10185 c 2.71585,-10.45593 3.41965,-11.85425 8.51606,-16.91978 2.86716,-2.84978 7.32613,-5.96081 9.90882,-6.91338 l 4.69581,-1.73194 0.30882,-9.90729 0.30882,-9.90727 h -3.99183 c -5.98638,0 -11.10233,-2.17338 -11.25308,-4.78059 -0.36844,-6.37193 1.65787,-8.10831 9.46218,-8.10831 h 5.70212 v -9.12964 -9.12963 h -3.86545 c -8.03369,0 -13.67057,-4.9973 -11.08544,-9.82764 1.13408,-2.11908 3.41363,-2.86529 10.11756,-3.31201 l 4.2963,-0.28629 0.30741,-10.47223 c 0.2838,-9.6678 0.1512,-10.47223 -1.72619,-10.47223 -1.11849,0 -4.51932,-2.48571 -7.55742,-5.52381 -4.42213,-4.42213 -5.5629,-6.29653 -5.71981,-9.39816 -0.35054,-6.92914 0.41299,-16.74921 1.34805,-17.33791 0.50202,-0.31608 1.68418,-2.42092 2.62701,-4.67743 2.41623,-5.78286 10.68871,-13.65431 18.25317,-17.36832 l 6.43075,-3.15737 h 34.90743 34.90743 l 6.21218,3.19645 c 7.89243,4.061 13.46433,9.42022 17.82216,17.14187 3.09568,5.48524 3.44714,7.0089 3.51545,15.23988 0.067,8.06981 -0.23587,9.5835 -2.57521,12.87133 -2.92293,4.10808 -9.02934,9.01347 -11.22028,9.01347 -1.05433,0 -1.40244,2.5042 -1.40244,10.0888 0,11.30823 0.0594,11.3927 8.01189,11.3927 5.17851,0 7.29368,1.74192 7.29368,6.00662 0,4.18998 -2.68443,6.10164 -9.34363,6.65387 l -5.96194,0.49441 v 8.99663 8.99664 h 5.44098 c 7.647,0 9.59607,1.29527 9.59607,6.37717 0,3.693 -0.37497,4.28415 -3.3825,5.33257 -1.86038,0.64854 -5.26185,1.17916 -7.55883,1.17916 h -4.17633 l 0.30882,9.90727 0.30883,9.90729 4.43901,1.63902 c 5.5433,2.04676 13.52952,9.10682 15.52252,13.72237 0.82902,1.9199 1.87266,3.49074 2.31919,3.49074 0.44654,0 0.81848,1.57083 0.82655,3.49074 0.0327,7.77679 0.077,7.8079 12.76965,8.96665 10.41806,0.95108 12.13661,1.42103 17.29023,4.7281 6.65987,4.27362 9.83591,7.26688 12.50509,11.78544 1.05632,1.78823 2.22235,3.25131 2.59117,3.25131 0.36882,0 1.35211,2.05417 2.18509,4.56482 1.26414,3.81018 1.51451,22.94239 1.51451,115.73156 0,92.78917 -0.25037,111.92138 -1.51451,115.73156 -0.83298,2.51065 -1.88791,4.56482 -2.34429,4.56482 -0.45638,0 -1.10084,0.84583 -1.43214,1.87963 -0.99605,3.10819 -7.24577,9.28136 -13.17494,13.01359 -3.89934,2.4545 -7.733,3.81585 -12.74425,4.52554 -3.94202,0.55826 -7.59488,1.27927 -8.11748,1.60226 -0.52261,0.32299 -0.9502,9.98374 -0.9502,21.46833 0,27.14177 1.72345,25.17736 -22.08914,25.17736 -11.14185,0 -18.6698,-0.45428 -20.1389,-1.21528 -1.29033,-0.66841 -7.66273,-6.42583 -14.16088,-12.79425 -6.49816,-6.36843 -16.88983,-16.44708 -23.09261,-22.39702 l -11.27779,-10.81807 -87.41078,-0.0173 -87.4108,-0.0173 -8.02077,7.78704 c -20.73226,20.12811 -37.03936,35.85935 -38.69037,37.3241 -1.43377,1.27202 -5.6653,1.66965 -20.10468,1.88922 -15.84433,0.24095 -18.68348,0.0282 -21.24241,-1.59136 z m 41.90897,-17.75157 c 20.79304,-20.01586 24.95219,-24.3362 24.95219,-25.91922 0,-1.55699 -2.91139,-1.73821 -27.92594,-1.73821 h -27.92595 v 17.1852 17.18519 h 11.96304 11.96304 z m 298.60002,-10.20371 -0.29579,-16.91668 -27.31635,-0.28737 c -18.43711,-0.19397 -27.68906,0.0883 -28.46299,0.86837 -0.81547,0.82195 3.63125,5.79068 15.3966,17.20405 l 16.54323,16.0483 h 12.21555 12.21555 z m 29.18193,-33.56484 c 5.44789,-3.95376 8.59847,-7.67361 9.34333,-11.03162 0.36308,-1.63683 1.08104,-3.23619 1.59548,-3.55414 0.51444,-0.31793 0.93535,-4.17455 0.93535,-8.57024 v -7.99217 h -41.19161 c -27.13796,0 -42.34563,-0.4023 -44.5741,-1.17915 -2.99458,-1.04392 -3.3825,-1.64776 -3.3825,-5.2653 0,-3.61754 0.38792,-4.22138 3.3825,-5.2653 2.22847,-0.77685 17.43614,-1.17915 44.5741,-1.17915 h 41.19161 v -37.0679 -37.06791 l -42.69447,0.28085 -42.69448,0.28084 -0.67651,8.32706 c -0.3721,4.57989 -1.16148,8.92989 -1.75418,9.66668 -0.59271,0.73678 -1.61855,3.90605 -2.27964,7.04281 -1.21813,5.77981 -3.75554,12.27282 -7.84495,20.07459 -1.23858,2.36296 -2.91786,5.57461 -3.73174,7.13699 -0.81388,1.56237 -2.19475,3.43405 -3.06861,4.15929 -0.87386,0.72524 -1.58883,1.89384 -1.58883,2.5969 0,1.31884 -14.40272,17.60722 -17.02664,19.25582 -0.81126,0.50971 -2.28226,1.71804 -3.26889,2.68518 -7.62273,7.47215 -25.96132,18.02908 -38.24154,22.01441 -2.95371,0.95857 -7.78705,2.52282 -10.74075,3.47612 -13.6196,4.39563 -53.69063,3.97587 -62.76934,-0.65754 -0.92133,-0.47021 -3.85015,-1.43685 -6.50849,-2.14811 -5.66427,-1.51548 -20.78277,-8.4747 -21.30248,-9.80576 -0.19692,-0.50433 -0.99421,-0.91697 -1.77178,-0.91697 -2.0196,0 -14.40011,-9.22726 -22.94462,-17.10076 -4.58469,-4.22463 -17.06401,-19.35659 -18.98181,-23.01663 -0.97486,-1.86045 -3.21996,-6.04098 -4.98914,-9.29005 -1.76916,-3.24908 -3.9562,-8.32408 -4.86008,-11.27779 -0.90388,-2.9537 -1.97547,-5.61204 -2.38131,-5.90741 -0.40584,-0.29537 -1.69492,-6.33704 -2.86462,-13.42594 l -2.12672,-12.88889 -42.12952,-0.28099 -42.12951,-0.28098 v 37.03272 37.03273 l 42.91751,0.30384 c 41.47517,0.29362 42.97204,0.37603 44.53995,2.45199 0.89234,1.18148 1.62243,2.87315 1.62243,3.75926 0,0.88611 -0.73009,2.57778 -1.62243,3.75926 -1.56804,2.07612 -3.06492,2.15834 -44.64549,2.45225 l -43.02305,0.30412 0.39059,9.36256 c 0.33904,8.12707 0.78951,9.95361 3.41365,13.84149 3.01112,4.46123 9.1669,9.30311 13.12318,10.32217 1.14398,0.29466 86.90503,0.4683 190.5801,0.38585 l 188.50012,-0.14989 z M 370.71696,610.88005 c 0.73841,-0.73843 2.81672,-1.34884 4.61848,-1.35645 3.69624,-0.0156 14.52207,-3.215 19.38705,-5.72946 1.77222,-0.91597 3.94723,-1.92381 4.83334,-2.23964 9.21394,-3.28404 27.22542,-17.56146 35.95193,-28.49854 5.89523,-7.38857 15.59686,-24.22335 15.61027,-27.08775 0.004,-0.77676 0.76755,-2.86228 1.69757,-4.63451 6.03407,-11.49834 6.03407,-54.02021 0,-65.51856 -0.93002,-1.77222 -1.69392,-3.79981 -1.69757,-4.50573 -0.01,-1.94636 -10.56382,-21.88816 -12.86778,-24.31417 -1.28446,-1.35252 1.86396,-6.844 4.28717,-7.47769 3.62959,-0.94916 6.25416,0.39016 8.73836,4.45919 1.31375,2.15185 3.27323,5.36246 4.35441,7.13468 1.08119,1.77222 2.73092,4.91389 3.66608,6.98148 0.93516,2.0676 2.78975,6.17593 4.12133,9.12964 1.33158,2.95371 2.77568,7.30371 3.20911,9.66667 0.43343,2.36297 1.25715,4.86411 1.83048,5.55809 0.57333,0.694 1.37591,5.28567 1.78351,10.20371 l 0.7411,8.94192 42.69448,0.28084 42.69447,0.28085 v -51.50453 c 0,-33.17775 -0.38219,-51.74073 -1.07408,-52.16834 -0.59074,-0.3651 -1.07407,-1.60056 -1.07407,-2.74548 0,-3.00562 -6.56427,-9.8231 -12.13902,-12.60727 l -4.79185,-2.39316 -188.38865,0.28036 -188.38864,0.28036 -4.66225,3.42874 c -2.56423,1.88582 -5.93412,5.26916 -7.48865,7.51853 l -2.8264,4.08977 -0.29777,52.89819 -0.29776,52.89818 h 42.21721 42.21721 l 1.43036,-9.39815 c 0.78671,-5.16899 1.66957,-11.21066 1.96192,-13.42594 0.29236,-2.21528 0.88762,-4.02778 1.3228,-4.02778 0.43519,0 1.3775,-2.05417 2.09403,-4.56482 1.86292,-6.52747 7.9556,-18.52901 13.38016,-26.35666 4.31298,-6.22364 9.9493,-7.02669 12.34919,-1.7595 1.3399,2.94075 0.81242,5.00331 -2.45211,9.58837 -1.26181,1.77223 -2.8785,4.43056 -3.59263,5.90741 -0.71414,1.47686 -1.77327,3.41019 -2.35365,4.2963 -3.99892,6.10556 -8.62704,20.90338 -8.62704,27.58386 0,2.55112 -0.48334,4.63839 -1.07408,4.63839 -0.66096,0 -1.07407,5.37037 -1.07407,13.96297 0,8.5926 0.41311,13.96297 1.07407,13.96297 0.59074,0 1.07408,2.08727 1.07408,4.6384 0,6.85218 4.19709,20.11434 8.72952,27.58385 0.53768,0.88611 1.57833,2.81944 2.31256,4.2963 3.70347,7.44936 13.90904,20.26797 20.09471,25.23979 1.47059,1.18202 3.41601,2.87411 4.32314,3.76023 2.84071,2.77489 13.36543,9.66667 14.76236,9.66667 0.73332,0 1.33341,0.3625 1.33355,0.80556 7.2e-4,2.28195 22.97377,11.00926 28.9799,11.00926 1.54686,0 3.27163,0.44614 3.83283,0.99143 1.68628,1.63844 6.65393,2.02595 23.7908,1.85583 11.43974,-0.11357 16.72779,-0.5639 17.66853,-1.50466 z m -59.42702,-245.4915 c 0.48461,-2.51723 -2.38652,-8.52725 -5.86862,-12.28448 l -2.73923,-2.95568 h -50.31483 -50.31484 l -3.32542,3.40131 c -2.52055,2.57808 -3.48219,4.72503 -3.97315,8.87044 l -0.64774,5.46913 58.40469,-0.27784 c 55.3948,-0.26353 58.42399,-0.37808 58.77914,-2.22288 z m 195.67337,-0.79349 c 0,-4.02659 -2.09897,-8.2172 -5.89102,-11.76149 l -2.8729,-2.68518 -48.09485,-0.30006 c -29.96442,-0.18693 -49.15119,0.10158 -50.89702,0.76534 -4.03688,1.53482 -9.31837,9.2764 -9.31837,13.65884 v 3.59811 h 58.53708 58.53708 z M 286.77797,326.51874 v -9.12963 h -33.83335 -33.83336 v 9.12963 9.12964 h 33.83336 33.83335 z m 195.48162,0 v -9.12963 h -33.83336 -33.83335 v 9.12963 9.12964 h 33.83335 33.83336 z m -195.7067,-31.41669 0.31195,-8.86111 h -33.87679 -33.87679 v 9.14493 9.14494 l 33.56484,-0.28382 33.56484,-0.28382 z m 195.7067,0.26852 v -9.12963 h -33.83336 -33.83335 v 9.12963 9.12964 h 33.83335 33.83336 z m -196.77588,-22.9338 c 0.99405,-0.6306 1.30053,-3.30754 1.07408,-9.3817 l -0.31685,-8.49934 -33.56484,-0.28382 -33.56484,-0.28382 v 8.96592 c 0,4.93126 0.32222,9.28815 0.71605,9.68198 1.03956,1.03956 64.00481,0.84851 65.6564,-0.19922 z m 196.54917,-9.01992 0.31035,-9.39816 h -33.87518 -33.87517 v 9.04013 c 0,6.22281 0.41841,9.21148 1.34259,9.58996 0.73842,0.3024 15.8426,0.46351 33.56484,0.35802 l 32.22224,-0.1918 z m -182.094,-25.41282 c 6.97613,-7.39122 0.98676,-22.97478 -11.22441,-29.20446 -3.66615,-1.87033 -6.68867,-2.04017 -36.30689,-2.04017 -30.71814,0 -32.53033,0.11145 -36.82985,2.26507 -5.45829,2.73404 -10.29766,7.93609 -11.15292,11.98877 -0.34543,1.63683 -1.04896,3.23619 -1.5634,3.55413 -0.51444,0.31795 -0.93535,2.89564 -0.93535,5.72822 0,3.97807 0.59943,5.79694 2.6339,7.99218 l 2.63391,2.84202 h 44.89739 44.89739 z m 194.58472,2.47381 c 0.93443,-0.35857 1.69896,-1.32524 1.69896,-2.14815 0,-0.82291 0.48333,-1.4962 1.07408,-1.4962 1.5199,0 1.30497,-10.54377 -0.30651,-15.03704 -1.66343,-4.63806 -6.43776,-9.80699 -11.80951,-12.78557 -3.87366,-2.14791 -5.5669,-2.25148 -36.8084,-2.25148 h -32.74795 l -4.54348,2.82155 c -8.52736,5.29559 -12.59904,12.10959 -12.59904,21.08462 0,4.39286 0.50474,5.85233 2.74053,7.92439 l 2.74052,2.53983 h 44.43092 c 24.43701,0 45.19546,-0.29337 46.12988,-0.65195 z"
         id="path3"
         transform="scale(0.26458333)" /><path
         style="fill:#000000;stroke:#bcfafd;stroke-width:1.07407"
         d="m 321.06279,591.7121 c -1.57396,-1.8965 -1.55135,-12.89669 0.0416,-20.25702 0.51704,-2.38897 1.45878,-9.66025 2.09277,-16.15841 1.47809,-15.14998 2.09486,-20.87529 2.89266,-26.85187 l 0.64519,-4.83333 h -24.32818 c -25.87343,0 -29.70573,-0.65296 -31.18488,-5.31334 -1.04702,-3.29888 1.40313,-6.58279 11.25968,-15.0912 5.0213,-4.33451 10.09631,-8.78767 11.27779,-9.89591 1.18148,-1.10824 3.65427,-3.32318 5.49507,-4.92209 3.70968,-3.2222 17.14776,-15.15382 19.06226,-16.92531 0.67126,-0.6211 4.12047,-3.69765 7.66491,-6.83676 3.54445,-3.1391 8.37779,-7.47643 10.74075,-9.6385 2.36297,-2.16207 7.9213,-7.0527 12.35186,-10.86807 4.43056,-3.81537 9.02223,-7.91586 10.20371,-9.1122 3.7164,-3.76313 14.65109,-12.35965 15.72137,-12.35965 0.56344,0 2.25709,1.23265 3.76367,2.73923 1.93762,1.93762 2.56013,3.45285 2.12722,5.17772 -0.33661,1.34117 -1.11995,9.17102 -1.74077,17.39967 -0.62081,8.22865 -1.68806,17.86118 -2.37164,21.40563 -0.68358,3.54445 -1.2757,10.55279 -1.31581,15.57408 l -0.0729,9.12964 26.31484,0.60407 c 14.47316,0.33223 26.45124,0.69473 26.61796,0.80555 0.16672,0.11082 0.70449,1.28649 1.19505,2.6126 1.34081,3.62455 -0.55549,7.3187 -6.14486,11.97075 -6.59085,5.48556 -16.16547,13.82821 -23.67727,20.63067 -3.32554,3.01151 -7.67747,6.87818 -9.67095,8.5926 -1.99348,1.71442 -4.68793,4.08379 -5.98767,5.26528 -1.29974,1.18148 -6.1937,5.50038 -10.8755,9.59755 -4.68179,4.09717 -9.04745,8.08261 -9.70147,8.85652 -0.65402,0.77393 -2.88215,2.75258 -4.9514,4.39701 -3.40258,2.70402 -9.80335,8.35428 -24.27746,21.43083 -5.45991,4.93271 -10.53912,6.04141 -13.16762,2.87426 z m 20.07592,-25.9432 c 4.38829,-3.94705 18.41272,-16.24761 22.34899,-19.60186 1.73312,-1.47685 5.55611,-5.00521 8.49554,-7.8408 2.93943,-2.83559 6.18199,-5.74226 7.20569,-6.45929 2.07794,-1.45545 15.70405,-13.42195 21.14281,-18.56769 1.93621,-1.8319 3.52039,-3.88607 3.52039,-4.56482 0,-0.88083 -5.20684,-1.23409 -18.18935,-1.23409 -10.00415,0 -19.43782,-0.47467 -20.96372,-1.05482 -4.58301,-1.74245 -4.79857,-4.40244 -2.09051,-25.79705 2.65623,-20.9851 3.21575,-32.22225 1.60443,-32.22225 -0.98288,0 -9.3966,6.6111 -11.37941,8.9414 -0.59074,0.69427 -3.95157,3.67898 -7.46851,6.63269 -3.51694,2.9537 -7.40557,6.33704 -8.64142,7.51852 -3.23077,3.08866 -19.66543,17.89554 -24.59396,22.15804 -9.48372,8.20211 -15.68503,14.14459 -15.68503,15.03038 0,0.51768 7.91459,0.94124 17.58797,0.94124 21.91794,0 23.83643,0.34437 25.29952,4.5414 0.61812,1.77313 0.91461,3.56243 0.65888,3.97621 -0.25573,0.41378 -0.99989,7.97077 -1.65369,16.7933 -0.6538,8.82253 -1.91058,19.55601 -2.79285,23.85219 -2.19252,10.67643 -0.65984,12.58256 5.59423,6.9573 z"
         id="path4"
         transform="scale(0.26458333)" /><path
         style="fill:#000000;stroke:#bcfafd;stroke-width:0.537037"
         d="m 498.06179,425.60214 c 0,-6.35047 0.0777,-8.94838 0.17263,-5.77315 0.0949,3.17523 0.0949,8.37107 0,11.5463 -0.0949,3.17524 -0.17263,0.57732 -0.17263,-5.77315 z"
         id="path6"
         transform="scale(0.26458333)" /><path
         style="fill:#000000;stroke:#bcfafd;stroke-width:0.537037"
         d="m 487.62996,442.81581 c -3.28992,-0.98431 -3.66389,-1.25155 -4.05327,-2.89648 -0.66561,-2.81185 -0.89464,-26.23225 -0.26271,-26.86418 0.3062,-0.3062 0.55672,-1.12982 0.55672,-1.83027 0,-1.4752 1.14558,-2.80793 2.41361,-2.80793 0.48358,0 1.35463,-0.25444 1.93569,-0.56541 0.7624,-0.40802 1.61209,-0.3721 3.05266,0.12905 2.44161,0.8494 3.87583,2.333 3.87583,4.00927 0,0.69323 0.24166,1.26042 0.53703,1.26042 0.69703,0 0.72777,23.29174 0.0324,24.57675 -0.27753,0.51289 -0.63056,1.5367 -0.78451,2.27512 -0.41584,1.99458 -4.56016,3.53443 -7.30349,2.71366 z"
         id="path7"
         transform="scale(0.26458333)" /><path
         style="fill:#000000;stroke:#bcfafd;stroke-width:0.537037"
         d="m 520.38924,442.81581 c -3.41154,-1.0207 -3.75926,-1.24911 -3.75926,-2.46942 0,-0.68287 -0.3625,-1.60409 -0.80555,-2.04715 -1.17573,-1.17573 -1.1605,-23.72897 0.0171,-25.28586 0.43366,-0.57335 0.78847,-1.49687 0.78847,-2.05225 0,-1.21818 1.22639,-2.54418 2.35304,-2.54418 0.45026,0 1.44074,-0.28345 2.20108,-0.62988 1.05746,-0.48181 1.53049,-0.48181 2.01231,0 0.34643,0.34643 1.08214,0.62988 1.6349,0.62988 1.29871,0 2.39483,1.11656 2.84092,2.8939 0.19499,0.7769 0.56942,1.54536 0.83207,1.70768 0.638,0.39431 0.6204,24.78379 -0.0182,25.17846 -0.27264,0.1685 -0.64206,0.97266 -0.82092,1.78703 -0.46869,2.1339 -4.44108,3.67995 -7.27596,2.83179 z"
         id="path8"
         transform="scale(0.26458333)" /><path
         style="fill:#000000;stroke:#bcfafd;stroke-width:0.537037"
         d="m 420.50029,426.4077 c -0.36771,-0.44306 -0.97503,-0.80556 -1.3496,-0.80556 -0.789,0 -1.19882,-2.67535 -0.89609,-5.84975 0.13621,-1.42834 0.4744,-2.20581 0.9595,-2.20581 0.41203,0 0.74915,-0.24167 0.74915,-0.53704 0,-0.29537 0.42956,-0.53703 0.95458,-0.53703 0.52502,0 1.43127,-0.33173 2.01389,-0.73718 0.92553,-0.64407 1.40715,-0.57232 3.81354,0.56817 2.34189,1.10992 2.79772,1.57332 3.04471,3.09534 0.40878,2.51901 -0.16766,6.2033 -0.97056,6.2033 -0.368,0 -0.96993,0.3625 -1.33764,0.80556 -0.43906,0.52904 -1.63728,0.80555 -3.49074,0.80555 -1.85346,0 -3.05168,-0.27651 -3.49074,-0.80555 z"
         id="path9"
         transform="scale(0.26458333)" /><path
         style="fill:#000000;stroke:#bcfafd;stroke-width:0.537037"
         d="m 273.88908,426.71241 c 0,-0.27547 -0.42292,-0.63817 -0.93982,-0.806 -0.5169,-0.16783 -1.34765,-1.27832 -1.84611,-2.46775 -0.85036,-2.02914 -0.85036,-2.26787 0,-3.86857 1.22603,-2.30784 1.80141,-2.88545 3.34801,-3.36098 0.72465,-0.2228 1.65893,-0.6776 2.07618,-1.01067 0.5683,-0.45364 0.81389,-0.44141 0.9789,0.0487 0.12115,0.35986 0.99716,0.80004 1.9467,0.97817 2.12266,0.39822 3.30135,2.65778 3.18447,6.10472 -0.11654,3.4372 -1.82548,4.88319 -5.77119,4.88319 -1.63743,0 -2.97714,-0.22538 -2.97714,-0.50084 z"
         id="path10"
         transform="scale(0.26458333)" /><path
         style="fill:#000000;stroke:#bcfafd;stroke-width:0.537037"
         d="m 209.3519,442.94191 c -0.7894,-0.11984 -2.05815,-0.84077 -2.81945,-1.60206 l -1.38416,-1.38416 v -14.42678 c 0,-9.25983 0.19234,-14.42678 0.53704,-14.42678 0.29537,0 0.53703,-0.25893 0.53703,-0.5754 0,-1.32102 2.82585,-2.74349 5.37038,-2.70332 2.00202,0.0316 4.2963,0.77617 4.2963,1.39429 0,0.37336 0.3625,0.97969 0.80555,1.34739 0.44306,0.36771 0.80556,1.24313 0.80556,1.94539 0,0.70226 0.24167,1.27684 0.53704,1.27684 0.34132,0 0.53703,4.19623 0.53703,11.51461 0,7.09711 -0.20603,11.64194 -0.53703,11.84652 -0.29537,0.18255 -0.53704,0.79264 -0.53704,1.35577 0,2.64331 -4.35274,5.0139 -8.14825,4.43769 z"
         id="path11"
         transform="scale(0.26458333)" /><path
         style="fill:#000000;stroke:#bcfafd;stroke-width:0.537037"
         d="m 176.55105,442.9379 c -0.81227,-0.12205 -1.47686,-0.44752 -1.47686,-0.72327 0,-0.27575 -0.3625,-0.50137 -0.80555,-0.50137 -0.44306,0 -0.80556,-0.3625 -0.80556,-0.80555 0,-0.44306 -0.24167,-0.80556 -0.53704,-0.80556 -0.34476,0 -0.53703,-5.19136 -0.53703,-14.50001 0,-9.30865 0.19227,-14.50001 0.53703,-14.50001 0.29537,0 0.53704,-0.32166 0.53704,-0.71481 0,-0.72559 0.99554,-1.32662 4.19192,-2.53074 1.3328,-0.50209 1.92842,-0.5156 2.38982,-0.0542 0.33801,0.33801 1.15411,0.61457 1.81356,0.61457 0.72734,0 1.3331,0.42251 1.53989,1.07407 0.1875,0.59074 0.56628,1.07407 0.84175,1.07407 0.27546,0 0.50085,0.58991 0.50085,1.3109 0,0.721 0.24166,1.46026 0.53703,1.64281 0.72652,0.44901 0.72652,23.18063 0,23.62965 -0.29537,0.18255 -0.53703,0.87659 -0.53703,1.54233 0,2.66779 -4.20115,4.84644 -8.18982,4.24712 z"
         id="path12"
         transform="scale(0.26458333)" /></g></g></svg>
