<svg width="224" height="199" viewBox="0 0 224 199" fill="none" xmlns="http://www.w3.org/2000/svg">
<path d="M205.333 128.521C205.333 151.417 184.44 169.979 158.667 169.979C150.309 169.979 142.464 168.027 135.679 164.609C123.733 158.59 115.07 148.025 112.67 135.562C112.23 133.273 112 130.921 112 128.521C112 117.876 116.516 108.167 123.94 100.826C132.483 92.3766 144.876 87.0625 158.667 87.0625C184.44 87.0625 205.333 105.624 205.333 128.521Z" fill="#E69F25" stroke="black" stroke-width="5.33333" stroke-linecap="round" stroke-linejoin="round"/>
<path d="M158.667 49.75V82.9167V87.0625C144.876 87.0625 132.483 92.3766 123.94 100.826C116.516 108.167 112 117.876 112 128.521C112 130.921 112.23 133.273 112.67 135.562C115.07 148.025 123.733 158.59 135.679 164.609C123.254 167.946 106.762 169.979 88.6667 169.979C50.0067 169.979 18.6667 160.698 18.6667 149.25V116.083V82.9167V49.75" stroke="black" stroke-width="5.33333" stroke-linecap="round" stroke-linejoin="round"/>
<path d="M158.667 49.75C158.667 61.1983 127.327 70.4792 88.6667 70.4792C50.0067 70.4792 18.6667 61.1983 18.6667 49.75C18.6667 38.3016 50.0067 29.0208 88.6667 29.0208C127.327 29.0208 158.667 38.3016 158.667 49.75Z" fill="#E69F25" stroke="black" stroke-width="5.33333" stroke-linecap="round" stroke-linejoin="round"/>
<path d="M18.6667 116.083C18.6667 127.532 50.0067 136.813 88.6668 136.813C97.0994 136.813 105.183 136.371 112.67 135.562" stroke="black" stroke-width="5.33333" stroke-linecap="round" stroke-linejoin="round"/>
<path d="M18.6667 82.9167C18.6667 94.365 50.0067 103.646 88.6667 103.646C101.529 103.646 113.582 102.619 123.94 100.826" stroke="black" stroke-width="5.33333" stroke-linecap="round" stroke-linejoin="round"/>
<path d="M158.667 107.792L144.667 124.375L172.667 132.667L158.667 149.25" stroke="white" stroke-width="5.33333" stroke-linecap="round" stroke-linejoin="round"/>
</svg>
