<svg width="36" height="40" viewBox="0 0 36 40" fill="none" xmlns="http://www.w3.org/2000/svg">
<path d="M12.375 15V8.75C12.375 7.75544 12.7306 6.80161 13.3635 6.09835C13.9965 5.39509 14.8549 5 15.75 5H24.75C25.6451 5 26.5035 5.39509 27.1365 6.09835C27.7694 6.80161 28.125 7.75544 28.125 8.75V31.25C28.125 32.2446 27.7694 33.1984 27.1365 33.9016C26.5035 34.6049 25.6451 35 24.75 35H15.75C14.8549 35 13.9965 34.6049 13.3635 33.9016C12.7306 33.1984 12.375 32.2446 12.375 31.25V25M18 15L22.5 20M22.5 20L18 25M22.5 20H3.375" stroke="black" stroke-width="1.5" stroke-linecap="round" stroke-linejoin="round"/>
</svg>
