<svg width="148" height="90" viewBox="0 0 148 90" fill="none" xmlns="http://www.w3.org/2000/svg">
<rect width="148" height="90" rx="9" fill="#D9D9D9"/>
<g clip-path="url(#clip0_652_539)">
<path d="M127.431 67.8408C126.502 67.8437 125.988 67.8651 125.566 68.0372C124.972 68.2804 124.49 68.7259 124.211 69.29C123.981 69.7516 123.943 70.3433 123.868 71.5266L123.75 73.3805C123.563 76.324 123.47 77.7954 124.359 78.7275C125.25 79.6589 126.749 79.6589 129.746 79.6589H132.726C135.724 79.6589 137.224 79.6589 138.112 78.7275C139.003 77.7954 138.909 76.324 138.721 73.3813L138.604 71.5273C138.529 70.3433 138.491 69.7516 138.262 69.2892C137.983 68.7255 137.501 68.2802 136.907 68.0372C136.482 67.8651 135.969 67.8437 135.04 67.8408" stroke="#1A1A1A" stroke-width="1.75" stroke-linecap="round" stroke-linejoin="round"/>
<path d="M135.04 68.5794L134.366 66.9433C134.076 66.2379 133.822 65.4373 133.075 65.0783C132.675 64.8862 132.196 64.8862 131.236 64.8862C130.275 64.8862 129.796 64.8862 129.396 65.0783C128.649 65.4373 128.396 66.2379 128.105 66.9433L127.431 68.5794M131.236 67.8408H131.242M133.899 73.7499C133.899 74.0894 133.83 74.4255 133.696 74.7392C133.562 75.0528 133.366 75.3378 133.119 75.5779C132.872 75.818 132.578 76.0084 132.255 76.1383C131.932 76.2682 131.585 76.3351 131.236 76.3351C130.886 76.3351 130.54 76.2682 130.216 76.1383C129.893 76.0084 129.6 75.818 129.352 75.5779C129.105 75.3378 128.909 75.0528 128.775 74.7392C128.641 74.4255 128.572 74.0894 128.572 73.7499C128.572 73.0642 128.853 72.4067 129.352 71.9218C129.852 71.437 130.529 71.1646 131.236 71.1646C131.942 71.1646 132.619 71.437 133.119 71.9218C133.618 72.4067 133.899 73.0642 133.899 73.7499Z" stroke="#1A1A1A" stroke-width="1.75" stroke-linecap="round" stroke-linejoin="round"/>
</g>
<rect opacity="0.15" x="115.782" y="61.3635" width="30.2041" height="24.5455" rx="10" fill="#E69F25"/>
<path d="M98.6667 18H42.2857C41.2176 18 40.1933 18.3292 39.438 18.9153C38.6828 19.5013 38.2585 20.2962 38.2585 21.125V30.5H58.3946V24.25H82.5578V55.5H98.6667C99.7347 55.5 100.759 55.1708 101.514 54.5847C102.27 53.9987 102.694 53.2038 102.694 52.375V21.125C102.694 20.2962 102.27 19.5013 101.514 18.9153C100.759 18.3292 99.7347 18 98.6667 18ZM51.3469 28.0586C51.3469 28.2917 51.2276 28.5152 51.0152 28.6801C50.8028 28.8449 50.5147 28.9375 50.2143 28.9375H46.4388C46.1384 28.9375 45.8503 28.8449 45.6379 28.6801C45.4255 28.5152 45.3061 28.2917 45.3061 28.0586V25.1289C45.3061 24.8958 45.4255 24.6723 45.6379 24.5074C45.8503 24.3426 46.1384 24.25 46.4388 24.25H50.2143C50.5147 24.25 50.8028 24.3426 51.0152 24.5074C51.2276 24.6723 51.3469 24.8958 51.3469 25.1289V28.0586ZM95.6463 48.3711C95.6463 48.6042 95.5269 48.8277 95.3145 48.9926C95.1021 49.1574 94.814 49.25 94.5136 49.25H90.7381C90.4377 49.25 90.1496 49.1574 89.9372 48.9926C89.7248 48.8277 89.6054 48.6042 89.6054 48.3711V45.4414C89.6054 45.2083 89.7248 44.9848 89.9372 44.8199C90.1496 44.6551 90.4377 44.5625 90.7381 44.5625H94.5136C94.814 44.5625 95.1021 44.6551 95.3145 44.8199C95.5269 44.9848 95.6463 45.2083 95.6463 45.4414V48.3711ZM95.6463 38.2148C95.6463 38.4479 95.5269 38.6715 95.3145 38.8363C95.1021 39.0012 94.814 39.0938 94.5136 39.0938H90.7381C90.4377 39.0938 90.1496 39.0012 89.9372 38.8363C89.7248 38.6715 89.6054 38.4479 89.6054 38.2148V35.2852C89.6054 35.0521 89.7248 34.8285 89.9372 34.6637C90.1496 34.4988 90.4377 34.4062 90.7381 34.4062H94.5136C94.814 34.4062 95.1021 34.4988 95.3145 34.6637C95.5269 34.8285 95.6463 35.0521 95.6463 35.2852V38.2148ZM95.6463 28.0586C95.6463 28.2917 95.5269 28.5152 95.3145 28.6801C95.1021 28.8449 94.814 28.9375 94.5136 28.9375H90.7381C90.4377 28.9375 90.1496 28.8449 89.9372 28.6801C89.7248 28.5152 89.6054 28.2917 89.6054 28.0586V25.1289C89.6054 24.8958 89.7248 24.6723 89.9372 24.5074C90.1496 24.3426 90.4377 24.25 90.7381 24.25H94.5136C94.814 24.25 95.1021 24.3426 95.3145 24.5074C95.5269 24.6723 95.6463 24.8958 95.6463 25.1289V28.0586ZM74.5034 33.625H26.1769C25.1088 33.625 24.0844 33.9542 23.3292 34.5403C22.574 35.1263 22.1497 35.9212 22.1497 36.75V64.875C22.1497 65.7038 22.574 66.4987 23.3292 67.0847C24.0844 67.6708 25.1088 68 26.1769 68H74.5034C75.5715 68 76.5958 67.6708 77.3511 67.0847C78.1063 66.4987 78.5306 65.7038 78.5306 64.875V36.75C78.5306 35.9212 78.1063 35.1263 77.3511 34.5403C76.5958 33.9542 75.5715 33.625 74.5034 33.625ZM34.2313 39.875C35.0278 39.875 35.8064 40.0583 36.4687 40.4017C37.131 40.745 37.6471 41.2331 37.9519 41.8041C38.2568 42.3751 38.3365 43.0035 38.1811 43.6097C38.0257 44.2158 37.6422 44.7727 37.079 45.2097C36.5157 45.6467 35.7982 45.9444 35.017 46.065C34.2358 46.1855 33.426 46.1236 32.6901 45.8871C31.9543 45.6506 31.3253 45.2501 30.8828 44.7362C30.4403 44.2223 30.2041 43.6181 30.2041 43C30.2041 42.1712 30.6284 41.3763 31.3836 40.7903C32.1389 40.2042 33.1632 39.875 34.2313 39.875ZM70.4762 61.75H30.2041V58.625L38.2585 52.375L42.2857 55.5L58.3946 43L70.4762 52.375V61.75Z" fill="white"/>
<defs>
<clipPath id="clip0_652_539">
<rect width="18.2629" height="17.7273" fill="white" transform="translate(122.104 63.4089)"/>
</clipPath>
</defs>
</svg>
