<?xml version="1.0" encoding="UTF-8" standalone="no"?>
<!-- Created with Inkscape (http://www.inkscape.org/) -->

<svg
   width="21cm"
   height="21cm"
   viewBox="0 0 210 210"
   version="1.1"
   id="svg1"
   xml:space="preserve"
   inkscape:export-filename="bitmap.svg"
   inkscape:export-xdpi="96"
   inkscape:export-ydpi="96"
   xmlns:inkscape="http://www.inkscape.org/namespaces/inkscape"
   xmlns:sodipodi="http://sodipodi.sourceforge.net/DTD/sodipodi-0.dtd"
   xmlns="http://www.w3.org/2000/svg"
   xmlns:svg="http://www.w3.org/2000/svg"><sodipodi:namedview
     id="namedview1"
     pagecolor="#ffffff"
     bordercolor="#000000"
     borderopacity="0.25"
     inkscape:showpageshadow="2"
     inkscape:pageopacity="0.0"
     inkscape:pagecheckerboard="0"
     inkscape:deskcolor="#d1d1d1"
     inkscape:document-units="mm" /><defs
     id="defs1" /><g
     inkscape:label="Capa 1"
     inkscape:groupmode="layer"
     id="layer1"><path
       style="fill:#1a1a1a;stroke:#bcfafd;stroke-width:0.25525"
       d="m 50.827982,207.02416 c 0,-0.14318 -0.176979,-0.26032 -0.39329,-0.26032 -0.505815,0 -1.108358,-0.62675 -1.108358,-1.15287 0,-0.225 -0.112628,-0.40908 -0.250275,-0.40908 -0.137652,0 -0.250277,-0.47249 -0.250277,-1.04998 0,-0.85048 0.164466,-1.22105 0.865598,-1.95033 l 0.865599,-0.90036 14.588872,-0.0672 14.588872,-0.0672 0.0662,-8.19099 c 0.03989,-4.93604 0.164215,-8.29295 0.312841,-8.44754 0.135648,-0.14109 0.246635,-0.41718 0.246635,-0.61353 0,-0.42447 0.604094,-1.10081 0.983221,-1.10081 0.147485,0 0.268152,-0.11711 0.268152,-0.26033 0,-0.16689 2.335895,-0.26032 6.507143,-0.26032 h 6.507147 v -50.3728 c 0,-33.408322 -0.08432,-50.372795 -0.250278,-50.372795 -0.13765,0 -0.250279,-0.222427 -0.250279,-0.49428 0,-0.271853 -0.563113,-1.092466 -1.251366,-1.823585 -0.688257,-0.73112 -1.251375,-1.445862 -1.251375,-1.588318 0,-0.142457 -0.112628,-0.25901 -0.250276,-0.25901 -0.13765,0 -0.250273,-0.126324 -0.250273,-0.280734 0,-0.154405 -0.450497,-0.730948 -1.001098,-1.281212 -0.550606,-0.550263 -1.001102,-1.126811 -1.001102,-1.281214 0,-0.154404 -0.08834,-0.280735 -0.196313,-0.280735 -0.107972,0 -0.400813,-0.360087 -0.650753,-0.800194 -0.24994,-0.440109 -0.949968,-1.315617 -1.555607,-1.945585 -0.605648,-0.629963 -1.101176,-1.25149 -1.101176,-1.381172 0,-0.129681 -0.422338,-0.693038 -0.93853,-1.251902 -0.516193,-0.558764 -1.445337,-1.712391 -2.064765,-2.56352 -1.2873,-1.768817 -1.844287,-2.475296 -2.815591,-3.571252 -0.378543,-0.427123 -0.690056,-0.852056 -0.692253,-0.9443 -0.0024,-0.09224 -0.348955,-0.577723 -0.770572,-1.078848 -1.675502,-1.991473 -1.868951,-2.237986 -2.292177,-2.920885 -0.241374,-0.389474 -0.806356,-1.09235 -1.255515,-1.56195 -0.44916,-0.469597 -1.095022,-1.262524 -1.435247,-1.762059 -0.612821,-0.89977 -1.351408,-1.809737 -2.438992,-3.004935 -0.309717,-0.340358 -0.563121,-0.718064 -0.563121,-0.839344 0,-0.28578 -2.222481,-2.666727 -2.489241,-2.666727 -0.111881,0 -0.639342,0.439876 -1.172133,0.977499 -0.532791,0.537626 -1.362891,1.267244 -1.844671,1.621367 -0.481779,0.354124 -1.128126,0.880706 -1.436327,1.170177 -0.308202,0.289472 -0.83914,0.78989 -1.179863,1.11204 -0.340723,0.322154 -0.767592,0.585733 -0.948601,0.585733 -0.181005,0 -0.491451,0.234289 -0.689879,0.52065 -0.198428,0.286354 -0.509559,0.520648 -0.691404,0.520648 -0.181842,0 -0.572401,0.234293 -0.867901,0.520648 -0.295505,0.286356 -0.684979,0.520649 -0.865497,0.520649 -0.180521,0 -0.32822,0.11715 -0.32822,0.260327 0,0.143176 -0.215863,0.260321 -0.479697,0.260321 -0.263829,0 -0.517233,0.09152 -0.563118,0.203369 -0.04588,0.111857 -1.660156,1.014176 -3.587273,2.005165 -1.927116,0.990986 -3.541388,1.895209 -3.587271,2.009386 -0.04588,0.114185 -0.355598,0.2076 -0.688255,0.2076 -0.332659,0 -0.604832,0.117151 -0.604832,0.260321 0,0.14318 -0.33787,0.260327 -0.750822,0.260327 -0.412953,0 -0.750826,0.117151 -0.750826,0.260322 0,0.14318 -0.274913,0.260327 -0.610916,0.260327 -0.336005,0 -0.680523,0.11715 -0.765596,0.260323 -0.08508,0.143179 -0.485904,0.260325 -0.890734,0.260325 -0.404827,0 -0.736053,0.117151 -0.736053,0.260326 0,0.143176 -0.394183,0.260322 -0.875961,0.260322 -0.481781,0 -0.875964,0.117152 -0.875964,0.260327 0,0.143176 -0.450493,0.260323 -1.001097,0.260323 -0.550605,0 -1.001098,0.11715 -1.001098,0.260327 0,0.143178 -0.450494,0.260321 -1.0011,0.260321 -0.550605,0 -1.001102,0.117151 -1.001102,0.260327 0,0.143179 -0.563117,0.260322 -1.251371,0.260322 -0.688258,0 -1.251374,0.117151 -1.251374,0.260326 0,0.14318 -0.612785,0.260326 -1.361742,0.260326 -0.748956,0 -1.431345,0.117137 -1.51642,0.260322 -0.08507,0.14318 -0.873439,0.260326 -1.751921,0.260326 -0.878487,0 -1.666853,0.117151 -1.751925,0.260323 -0.08704,0.146504 -1.290763,0.260327 -2.753023,0.260327 -1.46226,0 -2.665975,0.113821 -2.753025,0.260321 -0.09703,0.163298 -2.708984,0.260327 -7.007693,0.260327 -4.298709,0 -6.9106686,-0.09703 -7.0076961,-0.260327 -0.086237,-0.145133 -1.2490486,-0.260321 -2.6278845,-0.260321 -1.3788358,0 -2.5416502,-0.115195 -2.6278857,-0.260327 -0.085078,-0.143176 -0.3783979,-0.260323 -0.6518333,-0.260323 -0.5179782,0 -1.3763013,-0.793091 -1.9134835,-1.768056 C 1.4622843,62.699724 1.422373,61.50275 1.7741055,61.50275 c 0.1376512,0 0.2502746,-0.122475 0.2502746,-0.272159 0,-0.417881 1.1799247,-1.550113 1.6154101,-1.550113 0.2127347,0 0.3867886,-0.117151 0.3867886,-0.260326 0,-0.143176 0.225248,-0.260323 0.5005503,-0.260323 0.2753024,0 0.5005492,0.117151 0.5005492,0.260323 0,0.159087 1.1679494,0.260326 3.003298,0.260326 1.83535,0 3.0032967,0.101246 3.0032967,0.260324 0,0.354474 11.176882,0.354474 11.387506,0 0.08914,-0.150033 1.420821,-0.260324 3.143205,-0.260324 1.825502,0 2.988526,-0.101303 2.988526,-0.260326 0,-0.150409 0.792538,-0.260323 1.87706,-0.260323 1.084527,0 1.877064,-0.109914 1.877064,-0.260327 0,-0.143176 0.55647,-0.260321 1.236602,-0.260321 0.680131,0 1.306209,-0.117152 1.39128,-0.260327 0.08508,-0.143178 0.654841,-0.260322 1.266148,-0.260322 0.611305,0 1.111466,-0.117151 1.111466,-0.260327 0,-0.14318 0.443847,-0.260323 0.986328,-0.260323 0.54248,0 1.055933,-0.117151 1.141009,-0.260326 0.08507,-0.143179 0.542216,-0.260324 1.015868,-0.260324 0.473655,0 0.861192,-0.117139 0.861192,-0.260324 0,-0.143179 0.331223,-0.260326 0.736053,-0.260326 0.40483,0 0.805659,-0.11715 0.890732,-0.260322 0.08508,-0.14318 0.431119,-0.260327 0.768992,-0.260327 0.337873,0 0.866188,-0.135435 1.174034,-0.300968 1.204842,-0.647855 1.446272,-0.740329 1.932837,-0.740329 0.277169,0 0.503947,-0.117151 0.503947,-0.260326 0,-0.143176 0.176025,-0.260322 0.391167,-0.260322 0.529766,0 3.11268,-1.331162 3.11268,-1.604189 0,-0.119949 0.146484,-0.218084 0.325519,-0.218084 0.460435,0 1.672391,-0.612269 1.674728,-0.846055 9.87e-4,-0.107382 0.227199,-0.195242 0.502503,-0.195242 0.275302,0 0.50055,-0.11715 0.50055,-0.260327 0,-0.143178 0.225244,-0.260321 0.500549,-0.260321 0.2753,0 0.500549,-0.117151 0.500549,-0.260327 0,-0.143178 0.225248,-0.260326 0.500548,-0.260326 0.275302,0 0.500549,-0.117137 0.500549,-0.260322 0,-0.143181 0.147701,-0.260326 0.328222,-0.260326 0.180521,0 0.569996,-0.23429 0.865499,-0.520648 0.295502,-0.286356 0.686056,-0.520649 0.867902,-0.520649 0.181846,0 0.492973,-0.234294 0.691401,-0.52065 0.198428,-0.286355 0.487395,-0.520648 0.64215,-0.520648 0.356191,0 1.109775,-0.853582 1.109775,-1.257039 0,-0.222595 -1.320587,-0.304906 -4.891736,-0.304906 -4.859994,0 -4.895721,-0.0042 -5.506045,-0.638981 -0.337869,-0.35144 -0.61431,-0.761452 -0.61431,-0.911137 0,-0.149685 -0.112629,-0.272155 -0.250276,-0.272155 -0.395048,0 -0.33508,-16.773073 0.06258,-17.500293 0.897323,-1.641028 1.354113,-1.763724 6.566318,-1.763724 h 4.633481 v -3.254058 c 0,-1.995819 0.09678,-3.254056 0.250276,-3.254056 0.137648,0 0.250273,-0.194556 0.250273,-0.432345 0,-0.738055 1.493785,-1.910575 2.434061,-1.910575 0.829241,0 2.070885,0.929408 2.070885,1.550113 0,0.149688 0.109353,0.272159 0.24301,0.272159 0.141425,0 0.272204,1.44193 0.312845,3.449302 l 0.06983,3.449299 13.986249,0.06729 c 13.09639,0.063 14.007498,0.03816 14.320274,-0.390485 0.257178,-0.352454 0.335855,-1.943336 0.341983,-6.91492 l 0.0075,-6.457151 0.749664,-0.831937 c 0.412315,-0.457566 0.750188,-0.9197941 0.750823,-1.0271783 6.59e-4,-0.1073836 1.465264,-0.1952455 3.254738,-0.1952455 H 102.6344 V 6.5742795 c 0,-1.7354979 0.0987,-2.8635691 0.25028,-2.8635691 0.13765,0 0.25386,-0.2050044 0.25823,-0.4555684 0.0173,-0.9898972 1.26149,-1.8873524 2.61653,-1.8873524 0.48365,0 0.87935,0.103484 0.87935,0.2299619 0,0.1264784 0.22526,0.2912319 0.50056,0.366115 0.2753,0.07488 0.50056,0.3228393 0.50056,0.5510121 0,0.2281716 0.1091,0.4148578 0.24257,0.4148578 0.13954,0 0.27241,1.3543332 0.31283,3.1889748 l 0.0703,3.1889761 3.09166,0.073311 c 2.00001,0.047415 3.20427,0.1853026 3.41061,0.3904845 0.17543,0.1744503 0.55801,0.4894742 0.85018,0.7000552 0.29217,0.21058 0.53121,0.591306 0.53121,0.846057 0,0.254748 0.11259,0.463176 0.25029,0.463176 0.16042,0 0.25026,2.429697 0.25026,6.768439 v 6.768437 h 14.14052 14.14054 v -3.254058 c 0,-1.99582 0.0968,-3.254056 0.25027,-3.254056 0.13766,0 0.25028,-0.208429 0.25028,-0.463178 0,-0.254748 0.23905,-0.635474 0.53121,-0.846055 0.29217,-0.210581 0.67831,-0.529306 0.85808,-0.708281 0.66554,-0.662543 1.86858,-0.385967 2.76906,0.636602 l 0.84715,0.96201 v 3.305494 c 0,2.774033 0.0636,3.330901 0.39588,3.463507 0.21772,0.08691 2.4702,0.158015 5.00549,0.158015 2.90623,0 4.60961,0.09621 4.60961,0.260325 0,0.143181 0.14391,0.260324 0.31979,0.260324 0.35885,0 1.18186,0.908481 1.18186,1.304597 0,0.141542 0.1126,0.257352 0.25028,0.257352 0.16164,0 0.25028,2.950343 0.25028,8.330384 0,5.380039 -0.0886,8.330386 -0.25028,8.330386 -0.13765,0 -0.25028,0.234291 -0.25028,0.520649 0,0.286355 -0.11259,0.520648 -0.25028,0.520648 -0.13765,0 -0.25026,0.175719 -0.25026,0.390487 0,0.216936 -0.22247,0.390485 -0.50056,0.390485 -0.27529,0 -0.50055,0.117151 -0.50055,0.260326 0,0.164387 -1.747,0.260327 -4.74044,0.260327 -2.75548,0 -4.80258,0.104546 -4.8888,0.249669 -0.16797,0.282681 1.29307,1.832924 1.72746,1.832924 0.15567,0 0.44539,0.234295 0.64381,0.52065 0.19844,0.286358 0.56117,0.520649 0.80608,0.520649 0.24491,0 0.44529,0.11715 0.44529,0.260324 0,0.143177 0.1477,0.260324 0.32822,0.260324 0.18053,0 0.56999,0.234292 0.86551,0.520648 0.29551,0.286358 0.71092,0.520653 0.92315,0.520653 0.21224,0 0.38586,0.117137 0.38586,0.260321 0,0.14318 0.22527,0.260327 0.50056,0.260327 0.27531,0 0.50056,0.117151 0.50056,0.260323 0,0.143178 0.22524,0.260326 0.50055,0.260326 0.2753,0 0.50054,0.11715 0.50054,0.260322 0,0.143181 0.21587,0.260326 0.47969,0.260326 0.26383,0 0.51723,0.08786 0.56313,0.195241 0.13143,0.307589 1.61993,1.106382 2.06166,1.106382 0.21966,0 0.39938,0.117151 0.39938,0.260324 0,0.143178 0.21859,0.260326 0.48578,0.260326 0.26717,0 0.55538,0.117151 0.64046,0.260322 0.085,0.143179 0.42958,0.260326 0.76559,0.260326 0.336,0 0.61092,0.117151 0.61092,0.260323 0,0.143179 0.33787,0.260325 0.75082,0.260325 0.41295,0 0.75082,0.117151 0.75082,0.260327 0,0.143177 0.33788,0.260322 0.75083,0.260322 0.41294,0 0.75082,0.117151 0.75082,0.260327 0,0.143176 0.33121,0.260322 0.73606,0.260322 0.40483,0 0.80565,0.117151 0.89072,0.260326 0.085,0.14318 0.54222,0.260324 1.01587,0.260324 0.47366,0 0.86121,0.11715 0.86121,0.260324 0,0.14318 0.45048,0.260326 1.00108,0.260326 0.55062,0 1.0011,0.117139 1.0011,0.260323 0,0.14318 0.55647,0.260327 1.23661,0.260327 0.68013,0 1.3062,0.117138 1.39128,0.260322 0.085,0.14318 0.70451,0.260326 1.37651,0.260326 0.67201,0 1.29144,0.117152 1.37652,0.260322 0.085,0.14318 0.93639,0.260327 1.89182,0.260327 0.99125,0 1.73716,0.111778 1.73716,0.260323 0,0.159666 1.20966,0.260326 3.12843,0.260326 1.91877,0 3.12843,0.100659 3.12843,0.260324 0,0.166002 2.08563,0.260324 5.75635,0.260324 3.67068,0 5.7563,-0.09432 5.7563,-0.260324 0,-0.158383 1.12132,-0.260324 2.8634,-0.260324 1.63896,0 2.92954,-0.111326 3.01807,-0.260326 0.085,-0.143176 0.37328,-0.260323 0.64046,-0.260323 0.26717,0 0.48578,0.117151 0.48578,0.260323 0,0.143178 0.17696,0.260326 0.39328,0.260326 0.44949,0 1.10836,0.607947 1.10836,1.022702 0,0.153408 0.1126,0.278921 0.25029,0.278921 0.35555,0 0.31057,2.106032 -0.0626,2.92951 -0.34619,0.763983 -1.13888,1.235682 -2.07655,1.235682 -0.33765,0 -0.61392,0.110049 -0.61392,0.244563 0,0.483961 -17.65886,1.015953 -18.11106,0.545615 -0.14647,-0.152366 -1.42767,-0.269528 -2.94731,-0.269528 -1.52216,0 -2.75529,-0.112919 -2.84287,-0.260327 -0.085,-0.143176 -0.93639,-0.260323 -1.89185,-0.260323 -0.99124,0 -1.73714,-0.111778 -1.73714,-0.260326 0,-0.144626 -0.6674,-0.260322 -1.50165,-0.260322 -0.83424,0 -1.50164,-0.115701 -1.50164,-0.260326 0,-0.143181 -0.56312,-0.260326 -1.25138,-0.260326 -0.68825,0 -1.25136,-0.117138 -1.25136,-0.260322 0,-0.143181 -0.45051,-0.260327 -1.00111,-0.260327 -0.55061,0 -1.0011,-0.117139 -1.0011,-0.260323 0,-0.143179 -0.4505,-0.260326 -1.0011,-0.260326 -0.55061,0 -1.0011,-0.11715 -1.0011,-0.260322 0,-0.14318 -0.38753,-0.260327 -0.8612,-0.260327 -0.47365,0 -0.93079,-0.117151 -1.01585,-0.260322 -0.085,-0.143179 -0.48592,-0.260326 -0.89075,-0.260326 -0.40482,0 -0.73605,-0.117151 -0.73605,-0.260325 0,-0.143177 -0.27491,-0.260324 -0.61092,-0.260324 -0.336,0 -0.68052,-0.11715 -0.76559,-0.260326 -0.085,-0.143177 -0.42959,-0.260322 -0.76559,-0.260322 -0.33601,0 -0.61092,-0.117151 -0.61092,-0.260327 0,-0.143176 -0.33788,-0.260321 -0.75083,-0.260321 -0.41296,0 -0.75082,-0.111654 -0.75082,-0.248111 0,-0.136465 -0.42233,-0.439176 -0.93854,-0.672699 -0.51619,-0.233521 -1.13409,-0.531881 -1.3731,-0.663026 -0.23903,-0.131142 -0.60506,-0.238437 -0.8134,-0.238437 -0.20834,0 -0.3788,-0.117151 -0.3788,-0.260326 0,-0.143179 -0.22526,-0.260322 -0.50055,-0.260322 -0.27531,0 -0.50056,-0.117151 -0.50056,-0.260327 0,-0.14318 -0.22524,-0.260323 -0.50055,-0.260323 -0.2753,0 -0.50054,-0.117151 -0.50054,-0.260326 0,-0.143179 -0.22525,-0.260324 -0.50056,-0.260324 -0.27529,0 -0.50055,-0.117139 -0.50055,-0.260324 0,-0.14318 -0.17364,-0.260326 -0.38586,-0.260326 -0.21224,0 -0.62767,-0.23429 -0.92316,-0.520649 -0.29551,-0.286355 -0.68498,-0.520649 -0.8655,-0.520649 -0.18053,0 -0.32823,-0.11715 -0.32823,-0.260325 0,-0.143176 -0.20038,-0.260323 -0.4453,-0.260323 -0.24491,0 -0.60764,-0.234292 -0.80607,-0.520648 -0.19843,-0.28636 -0.5363,-0.52065 -0.75082,-0.52065 -0.21453,0 -0.55241,-0.234292 -0.75082,-0.520648 -0.19843,-0.286359 -0.49926,-0.520652 -0.66851,-0.520652 -0.16925,0 -0.39779,-0.15231 -0.50787,-0.338467 -0.11009,-0.186157 -0.59433,-0.623517 -1.0761,-0.971911 -0.48177,-0.348392 -1.2356,-1.005557 -1.67517,-1.460367 -0.43956,-0.45481 -1.14345,-1.038449 -1.56421,-1.296976 -0.42076,-0.258527 -0.76502,-0.561938 -0.76502,-0.674249 0,-0.322006 -0.75504,-0.238024 -1.08978,0.121219 -0.16676,0.178971 -0.5786,0.735414 -0.91521,1.236539 -0.3366,0.501125 -0.8397,1.159994 -1.118,1.464155 -0.65241,0.71305 -1.1184,1.316081 -1.87765,2.429864 -0.33756,0.495156 -1.09616,1.424 -1.68581,2.064089 -0.58963,0.640088 -1.07206,1.254664 -1.07206,1.365719 0,0.111055 -0.25798,0.470826 -0.57328,0.799484 -0.3153,0.32866 -1.18793,1.417584 -1.93915,2.419834 -1.21821,1.625248 -2.35471,3.030524 -3.13497,3.876321 -0.14657,0.158882 -0.37181,0.478026 -0.50055,0.709221 -0.32533,0.584255 -1.62259,2.272689 -2.29884,2.992017 -0.30971,0.329448 -0.56311,0.720692 -0.56311,0.869431 0,0.148736 -0.67575,0.984303 -1.50165,1.85682 -0.82591,0.87251 -1.50165,1.704882 -1.50165,1.84971 0,0.144831 -0.33786,0.591621 -0.75082,0.992868 -0.41295,0.401247 -0.75083,0.811258 -0.75083,0.911136 0,0.09988 -0.33787,0.50989 -0.75082,0.911136 -0.41295,0.401247 -0.75082,0.85748 -0.75082,1.013855 0,0.156373 -0.67575,0.998191 -1.50166,1.870706 -0.8259,0.87251 -1.50164,1.72602 -1.50164,1.896685 0,0.17067 -0.22525,0.479175 -0.50055,0.685571 -0.4976,0.373051 -0.50056,0.673897 -0.50056,51.081074 v 50.70581 l 6.31945,0.008 c 6.72666,0.009 6.68263,10e-4 7.51169,1.34926 0.38854,0.63193 0.43453,1.55968 0.43453,8.76466 0,4.43186 0.0684,8.24324 0.15192,8.46971 0.13614,0.36905 1.68278,0.41178 14.90273,0.41178 h 14.7508 l 0.61432,0.63898 c 0.33787,0.35144 0.61431,0.82002 0.61431,1.0413 0,0.22126 0.11259,0.40231 0.25027,0.40231 0.13766,0 0.25029,0.33281 0.25029,0.73956 0,0.51678 -0.33181,1.10495 -1.10146,1.95244 l -1.10143,1.21288 h -54.70988 c -36.306389,0 -54.709857,-0.0876 -54.709857,-0.26034 z m 74.680258,-6.13892 c 0.19816,-0.53713 0.19816,-11.65555 0,-12.19268 -0.13673,-0.37063 -2.1101,-0.41176 -19.75124,-0.41176 -10.779638,0 -19.777478,0.0711 -19.99521,0.158 -0.345247,0.1378 -0.395883,0.93027 -0.395883,6.19573 0,4.34889 0.084,6.12509 0.300329,6.3501 0.2285,0.23768 5.010669,0.31239 19.995214,0.31239 17.72827,0 19.71004,-0.041 19.84679,-0.41178 z M 111.14422,114.34862 V 46.403929 h -5.50605 -5.50605 v 67.944691 67.94471 h 5.50605 5.50605 z M 94.626076,59.029668 V 46.403929 h -9.996221 c -7.462829,0 -10.04291,0.07857 -10.180444,0.310039 -0.101315,0.170523 -0.05165,0.356003 0.110361,0.412181 0.162026,0.05617 0.294585,0.218709 0.294585,0.361178 0,0.142474 0.450497,0.709258 1.001103,1.259522 0.550605,0.550263 1.001098,1.114943 1.001098,1.254839 0,0.139903 0.563117,0.852555 1.251375,1.583675 0.688254,0.731115 1.251374,1.445857 1.251374,1.588317 0,0.142454 0.112617,0.25901 0.250273,0.25901 0.137653,0 0.250277,0.175717 0.250277,0.390483 0,0.214771 0.112616,0.390489 0.250273,0.390489 0.137652,0 0.250276,0.124756 0.250276,0.277223 0,0.152476 0.563118,0.84775 1.251375,1.545048 0.688253,0.6973 1.251371,1.401758 1.251371,1.565456 0,0.163701 0.422341,0.729283 0.938531,1.256852 0.516192,0.527569 1.329812,1.543412 1.808049,2.257429 0.478234,0.714017 1.173612,1.649652 1.545284,2.079191 1.286306,1.486561 1.714737,2.032777 1.715815,2.187507 6.59e-4,0.08547 0.513578,0.741142 1.139966,1.457033 0.626388,0.715894 1.611359,1.974017 2.188825,2.795836 0.577464,0.821814 1.190718,1.495404 1.362779,1.496866 0.172071,0.0015 0.312847,0.119794 0.312847,0.262978 0,0.14318 0.168936,0.260326 0.375411,0.260326 0.328532,0 0.375411,-1.576411 0.375411,-12.625739 z m 23.032604,12.078687 c 0.20245,-0.300878 0.79278,-1.03304 1.31183,-1.627029 0.51905,-0.593988 1.25016,-1.548562 1.62469,-2.121277 0.37452,-0.572711 0.85845,-1.217015 1.0754,-1.431785 0.21694,-0.214766 1.20879,-1.444797 2.2041,-2.733403 0.99531,-1.288609 1.94661,-2.518642 2.11396,-2.733408 0.16737,-0.214769 0.58063,-0.8005 0.91836,-1.301624 0.33773,-0.501126 1.04003,-1.34125 1.56065,-1.866944 0.52063,-0.525695 0.9466,-1.068013 0.9466,-1.205153 0,-0.137136 0.4505,-0.732186 1.0011,-1.322326 0.55061,-0.590144 1.0011,-1.132494 1.0011,-1.205225 0,-0.07273 0.33788,-0.499976 0.75083,-0.949446 0.41296,-0.449468 0.75083,-0.920069 0.75083,-1.045778 0,-0.125714 0.49552,-0.74399 1.10116,-1.373953 0.60564,-0.629967 1.30567,-1.505476 1.55561,-1.945585 0.24994,-0.440106 0.54278,-0.800194 0.65075,-0.800194 0.10795,0 0.19633,-0.234292 0.19633,-0.520648 0,-0.51186 -0.16686,-0.520648 -9.88587,-0.520648 h -9.88585 v 12.625739 c 0,13.157506 0.0312,13.531022 1.00842,12.078687 z m 38.9855,-31.004284 c 0.31647,-0.329194 0.44485,-7.58365 0.1484,-8.387188 -0.13784,-0.373631 -4.89107,-0.41178 -51.30633,-0.41178 H 54.331831 v 4.55568 4.555681 h 51.006009 c 39.33764,0 51.07471,-0.07147 51.30634,-0.312393 z M 111.01907,20.371474 v -4.816006 l -5.44347,-0.07015 -5.44348,-0.07016 v 4.95632 4.956319 l 5.44348,-0.07016 5.44347,-0.07015 z"
       id="path1" /></g></svg>
